<svg width="115" height="50" viewBox="0 0 115 50" fill="none" xmlns="http://www.w3.org/2000/svg">
<path d="M115 25C115 38.8071 109.404 50 102.5 50C95.5964 50 90 38.8071 90 25C90 11.1929 95.5964 0 102.5 0C109.404 0 115 11.1929 115 25Z" fill="#52525B"/>
<path d="M55 5.83333C55 2.61167 57.6117 0 60.8333 0H65C78.8071 0 90 11.1929 90 25C90 38.8071 78.8071 50 65 50H63.0769C58.6162 50 55 46.3838 55 41.9231V5.83333Z" fill="#52525B"/>
<path d="M20 0H35C40.5228 0 45 4.47715 45 10C45 15.5228 40.5228 20 35 20C43.2843 20 50 26.7157 50 35C50 43.2843 43.2843 50 35 50H0V20C0 8.95431 8.95431 0 20 0Z" fill="#0D9488"/>
</svg>
