<svg width="333" height="892" viewBox="0 0 333 892" fill="none" xmlns="http://www.w3.org/2000/svg">
<path d="M321.147 849.424C320.256 851.044 319.443 852.698 318.637 854.351C318.353 854.962 318.007 855.539 317.739 856.149C316.782 858.303 315.918 860.491 315.085 862.676C314.752 863.666 314.363 864.621 314.014 865.611C313.793 866.248 313.581 866.908 313.485 867.598C313.343 868.284 313.525 869.028 313.748 869.667C313.928 870.065 313.962 869.982 314.029 869.625C314.073 869.446 314.145 869.192 314.269 868.92C314.331 868.785 314.401 868.634 314.478 868.49C314.512 868.415 314.547 868.339 314.604 868.263L314.669 868.024C314.971 866.859 315.603 865.723 316.193 864.5C316.815 863.305 317.249 862.038 317.715 860.777C318.259 859.254 319.089 857.784 319.82 856.311C320.627 854.688 321.474 853.084 322.367 851.501C322.916 850.531 323.488 849.567 324.083 848.618C325.008 847.195 325.907 845.744 326.959 844.426C327.765 843.393 328.699 842.479 329.609 841.552C329.814 841.351 330.01 841.15 330.215 840.949C330.933 840.163 331.038 839.811 330.759 839.27C330.699 839.148 330.647 839.01 330.565 838.91C330.303 838.553 329.734 838.646 329.085 839.148C327.179 840.66 325.562 842.616 324.087 844.654C322.975 846.159 322.023 847.79 321.085 849.397L321.132 849.425L321.147 849.424Z" fill="#A1A1AA"/>
<path d="M71.5882 627.432C69.1684 628.694 66.815 630.056 64.4711 631.424C63.6222 631.941 62.7259 632.368 61.896 632.895C58.9535 634.75 56.0964 636.717 53.2772 638.705C52.0533 639.639 50.7914 640.489 49.5486 641.411C48.7529 642.008 47.9496 642.638 47.2602 643.396C46.5196 644.111 46.1205 645.149 45.8578 646.091C45.7446 646.709 45.8545 646.636 46.2314 646.257C46.4341 646.076 46.7315 645.825 47.1067 645.594C47.2943 645.479 47.5027 645.351 47.7149 645.237C47.8191 645.173 47.9233 645.109 48.056 645.061L48.3326 644.823C49.6643 643.653 51.3697 642.774 53.0959 641.758C54.8373 640.8 56.4135 639.61 58.0221 638.451C59.9431 637.037 62.164 635.909 64.2673 634.7C66.5885 633.369 68.94 632.092 71.3314 630.876C72.7981 630.132 74.2876 629.414 75.7941 628.731C78.089 627.732 80.3782 626.68 82.7397 625.907C84.5686 625.285 86.4526 624.907 88.3196 624.494C88.7328 624.409 89.1365 624.319 89.5498 624.235C91.0679 623.844 91.4866 623.502 91.5996 622.635C91.6298 622.441 91.6808 622.234 91.6655 622.051C91.646 621.419 90.8836 621.09 89.6855 621.193C86.1331 621.54 82.5606 622.646 79.0905 623.96C76.5017 624.913 74.0004 626.14 71.535 627.351L71.5692 627.421L71.5882 627.432Z" fill="#A1A1AA"/>
<path d="M83.7135 251.535C81.8592 251.013 79.9867 250.572 78.1161 250.139C77.4279 249.992 76.7619 249.778 76.0775 249.646C73.6588 249.171 71.2256 248.792 68.8001 248.442C67.7111 248.325 66.6461 248.148 65.5533 248.017C64.8504 247.936 64.127 247.867 63.3949 247.917C62.6588 247.922 61.9286 248.25 61.3152 248.595C60.9422 248.85 61.0346 248.866 61.4167 248.856C61.6107 248.862 61.8875 248.878 62.193 248.942C62.3457 248.974 62.5154 249.009 62.6795 249.053C62.7643 249.071 62.8492 249.089 62.9398 249.128L63.1997 249.141C64.4634 249.191 65.765 249.565 67.1471 249.88C68.507 250.231 69.9032 250.387 71.2995 250.575C72.9823 250.784 74.6688 251.279 76.3377 251.677C78.1782 252.118 80.0058 252.601 81.8224 253.133C82.9355 253.46 84.0467 253.811 85.1488 254.188C86.8058 254.782 88.4871 255.348 90.0623 256.086C91.2936 256.647 92.4279 257.356 93.5716 258.039C93.8211 258.194 94.0687 258.341 94.3183 258.496C95.2764 259.024 95.6606 259.052 96.1608 258.673C96.2751 258.591 96.4064 258.512 96.4924 258.413C96.8065 258.088 96.594 257.561 95.9429 257.042C93.9917 255.523 91.6419 254.373 89.2366 253.376C87.4561 252.619 85.5789 252.04 83.7281 251.47L83.7096 251.521L83.7135 251.535Z" fill="#A1A1AA"/>
<path d="M87.1018 56.1045C87.1018 56.1045 68.6326 68.1912 65.7826 86.4108C63.6857 99.8279 65.6724 111.919 70.2235 122.92C70.2235 122.92 76.941 110.468 83.271 107.585C89.6061 104.699 92.3758 104.097 92.3758 104.097C92.3758 104.097 93.277 103.301 92.2426 101.262C91.2083 99.2238 86.2628 87.8007 85.4016 82.3984C84.5405 76.9962 84.58 64.6173 84.58 64.6173L87.1018 56.1045Z" fill="#D4D4D8"/>
<path d="M154.066 75.3731C143.94 61.3033 131.959 57.7574 120.377 54.2426C108.798 50.7326 89.1404 55.0268 89.1404 55.0268C89.1404 55.0268 88.4905 56.1486 92.4422 57.4315C96.3916 58.7094 109.881 63.0313 114.271 68.7174C118.662 74.4035 125.243 82.0803 125.243 82.0803C125.243 82.0803 127.236 81.0998 129.396 79.5924C131.556 78.085 136.506 75.1885 140.581 74.6732C144.656 74.1579 154.066 75.3731 154.066 75.3731Z" fill="#D4D4D8"/>
<g opacity="0.15">
<path d="M148.678 165.306C148.678 165.306 165.049 196.145 169.509 199.114C165.489 201.366 162.098 203.202 160.936 203.73C157.526 205.267 150.268 209.111 147.832 206.392C145.403 203.675 135.925 187.806 135.925 187.806C135.925 187.806 133.372 184.295 131.621 184.339C129.863 184.379 127.604 180.197 127.249 178.42C126.896 176.649 131.181 174.998 134.033 172.639C135.286 171.606 142.807 167.699 150.852 163.645C149.121 164.794 148.673 165.308 148.673 165.308L148.678 165.306Z" fill="#52525B"/>
<path d="M177.243 160.899C177.113 161.817 174.657 162.994 175.141 163.424C177.363 165.378 188.968 187.106 187.536 188.448C186.713 189.215 181.407 192.339 175.071 195.962C175.396 195.342 175.441 194.686 175.071 194.005C173.853 191.771 160.724 168.742 159.623 166.574C158.524 164.399 156.485 161.369 153.676 162.213C161.233 158.42 170.479 153.951 171.112 153.868C174.668 153.391 177.381 159.937 177.243 160.899Z" fill="#52525B"/>
</g>
<path d="M163.698 191.074C162.974 189.889 162.279 188.686 161.606 187.467C161.357 187.028 161.082 186.601 160.835 186.155C159.974 184.589 159.141 183.016 158.326 181.429C157.955 180.732 157.576 180.032 157.222 179.333C156.753 178.443 156.308 177.536 155.892 176.617C155.764 176.331 155.81 176.352 155.994 176.56C156.17 176.766 156.512 177.14 156.847 177.618C157.431 178.469 158.046 179.307 158.595 180.174C159.126 181.054 159.653 181.937 160.148 182.845C160.72 183.943 161.444 185.011 162.101 186.095L164.274 189.667C164.718 190.403 165.166 191.131 165.623 191.856C166.318 192.953 167.01 194.058 167.753 195.116C168.329 195.936 168.959 196.703 169.578 197.485C169.714 197.656 169.852 197.819 169.989 197.994C170.467 198.657 170.518 198.935 170.37 199.242C170.335 199.31 170.307 199.393 170.267 199.452C170.12 199.646 169.761 199.479 169.327 199.051C168.094 197.73 167.008 196.192 165.953 194.628C165.171 193.462 164.421 192.271 163.677 191.083L163.708 191.07L163.698 191.074Z" fill="#52525B"/>
<path d="M151.319 172.926C151.264 172.667 151.202 172.406 151.112 172.15C151.078 172.053 151.044 171.968 151.013 171.876C150.921 171.539 150.795 171.205 150.64 170.89C150.573 170.749 150.486 170.616 150.407 170.486C150.298 170.321 150.178 170.156 150.083 169.98C150.014 169.874 150.227 169.911 150.418 170.069C150.717 170.367 151.001 170.697 151.195 171.071C151.309 171.298 151.475 171.508 151.6 171.736C151.733 171.99 151.834 172.258 151.931 172.527C151.989 172.69 152.04 172.863 152.094 173.028C152.161 173.287 152.233 173.544 152.298 173.798C152.361 173.983 152.435 174.192 152.502 174.386C152.518 174.432 152.536 174.472 152.542 174.522C152.567 174.693 152.503 174.751 152.305 174.797C152.26 174.805 152.212 174.82 152.167 174.828C152.012 174.849 151.869 174.793 151.801 174.688C151.617 174.374 151.52 174.051 151.466 173.704C151.418 173.448 151.371 173.192 151.309 172.93L151.324 172.924L151.319 172.926Z" fill="#52525B"/>
<path d="M166.133 197.495C165.996 197.113 165.841 196.733 165.664 196.358C165.599 196.221 165.515 196.093 165.445 195.959C165.217 195.475 164.967 194.996 164.727 194.512C164.62 194.3 164.479 194.102 164.362 193.894C164.213 193.63 164.064 193.353 163.948 193.068C163.912 192.978 163.945 192.97 164.038 193.011C164.123 193.051 164.292 193.124 164.432 193.239C164.949 193.649 165.325 194.161 165.622 194.726C165.785 195.073 166.034 195.382 166.236 195.718C166.453 196.088 166.652 196.472 166.841 196.86C166.954 197.099 167.069 197.344 167.167 197.589C167.329 197.96 167.438 198.36 167.55 198.753C167.623 199.063 167.765 199.377 167.716 199.764C167.7 199.848 167.704 199.934 167.666 200.022C167.534 200.351 167.353 200.395 167.168 200.287C167.127 200.264 167.08 200.243 167.042 200.213C166.917 200.103 166.89 199.956 166.869 199.847C166.814 199.536 166.694 199.099 166.521 198.615C166.38 198.265 166.265 197.879 166.113 197.504L166.133 197.495Z" fill="#52525B"/>
<path d="M127.576 180.409C127.446 179.795 127.337 179.177 127.35 178.529C127.339 178.298 127.313 178.062 127.359 177.824C127.508 176.998 127.845 176.185 128.394 175.549C128.509 175.404 128.648 175.284 128.765 175.145C128.89 175.007 129.019 174.88 129.169 174.785C129.359 174.654 129.524 174.487 129.732 174.384C129.928 174.269 130.183 174.24 130.401 174.185C130.547 174.157 130.563 174.244 130.525 174.408C130.477 174.565 130.432 174.885 130.277 175.047C130.11 175.161 130.002 175.333 129.868 175.462C129.803 175.532 129.733 175.592 129.678 175.669C129.628 175.744 129.58 175.824 129.518 175.887L129.331 176.086L129.179 176.307C129.128 176.382 129.071 176.454 129.013 176.526C128.963 176.601 128.925 176.689 128.877 176.769C128.826 176.868 128.768 176.964 128.729 177.075C128.702 177.187 128.683 177.302 128.663 177.416C128.61 177.64 128.646 177.884 128.622 178.118C128.592 178.638 128.616 179.181 128.725 179.723C128.779 180.058 128.868 180.39 128.975 180.721C129.138 181.221 129.33 181.72 129.586 182.185C129.802 182.538 130.061 182.854 130.315 183.173L130.486 183.381C130.667 183.661 130.657 183.795 130.454 184.013C130.41 184.062 130.368 184.116 130.317 184.162C130.154 184.31 129.916 184.297 129.696 184.128C129.049 183.623 128.557 182.943 128.2 182.186C127.925 181.629 127.719 181.036 127.543 180.43L127.574 180.416L127.576 180.409Z" fill="#52525B"/>
<path d="M143.672 178.832L147.626 176.597C148.109 176.326 148.571 176.023 149.058 175.762C150.771 174.834 152.509 173.935 154.254 173.064C155.026 172.666 155.811 172.286 156.592 171.908C157.584 171.42 158.632 170.937 159.844 170.941C160.228 170.967 160.147 171.014 159.885 171.171C159.758 171.238 159.582 171.398 159.397 171.561C159.208 171.756 158.987 171.936 158.722 172.099C158.486 172.232 158.265 172.4 158.019 172.525L157.29 172.91L155.832 173.703C154.845 174.213 153.827 174.683 152.803 175.168C151.577 175.741 150.391 176.491 149.193 177.176L145.243 179.445C144.439 179.916 143.63 180.389 142.832 180.874C141.622 181.611 140.401 182.336 139.236 183.118C138.33 183.722 137.496 184.388 136.633 185.032C136.443 185.174 136.268 185.321 136.077 185.458C135.36 185.973 135.108 186.06 134.727 185.886C134.644 185.852 134.542 185.831 134.469 185.793C134.337 185.733 134.297 185.609 134.377 185.391C134.437 185.194 134.612 184.982 134.852 184.752C136.301 183.421 137.999 182.294 139.725 181.188C141.008 180.372 142.324 179.589 143.635 178.807L143.649 178.836L143.672 178.832Z" fill="#52525B"/>
<path d="M135.111 183.384C135.294 183.357 135.479 183.323 135.662 183.296C135.729 183.284 135.778 183.245 135.848 183.237C136.078 183.207 136.323 183.17 136.546 183.137C136.649 183.122 136.74 183.082 136.833 183.047C136.949 182.996 137.057 182.925 137.203 182.949C137.292 182.957 137.411 183.483 137.302 183.589C137.1 183.743 136.893 183.887 136.626 183.903C136.467 183.915 136.348 184.026 136.206 184.088C136.049 184.157 135.893 184.213 135.736 184.282C135.64 184.325 135.539 184.357 135.445 184.404C135.298 184.468 135.147 184.523 135.029 184.622C134.931 184.7 134.879 184.835 134.81 184.948C134.797 184.971 134.788 185.005 134.767 185.026C134.7 185.102 134.615 185.027 134.414 184.756L134.277 184.569C134.128 184.357 134.042 184.148 134.061 184.033C134.14 183.734 134.339 183.599 134.569 183.516C134.738 183.448 134.923 183.413 135.097 183.367L135.108 183.391L135.111 183.384Z" fill="#52525B"/>
<path d="M167.606 196.348C167.807 196.708 168.014 197.07 168.222 197.421L168.535 197.955C168.629 198.115 168.788 198.375 168.766 198.355L168.812 198.452C168.818 198.491 168.851 198.495 168.878 198.488C168.908 198.487 168.941 198.479 168.973 198.47L168.994 198.461L169.12 198.418L169.388 198.3C170.856 197.656 172.34 196.828 173.806 196.026L174.208 195.802C174.274 195.761 174.343 195.725 174.414 195.694L174.581 195.621C174.67 195.564 174.751 195.517 174.802 195.483C174.769 195.321 174.775 195.412 174.442 194.692C172.624 190.888 170.557 187.164 168.444 183.46C167.504 181.816 166.519 180.192 165.545 178.58C164.928 177.543 164.298 176.505 163.699 175.454L163.254 174.666L162.885 173.832C162.756 173.558 162.648 173.276 162.542 172.987C162.443 172.7 162.309 172.429 162.234 172.126C162.156 171.742 162.118 171.582 162.127 171.589C162.142 171.595 162.225 171.759 162.478 171.983C162.757 172.238 163.105 172.563 163.504 172.93C163.718 173.124 163.931 173.343 164.159 173.579C164.274 173.694 164.378 173.825 164.508 173.945C164.597 174.082 164.691 174.229 164.783 174.372L166.721 177.511C167.362 178.561 167.981 179.627 168.605 180.691C169.847 182.821 171.076 184.974 172.236 187.175C172.935 188.489 173.672 189.821 174.41 191.165C174.772 191.843 175.147 192.509 175.502 193.196L176.032 194.218L176.349 194.863C176.484 195.151 176.645 195.44 176.705 195.697L176.843 196.131C176.873 196.171 176.828 196.191 176.797 196.216L176.491 196.421L175.681 196.971L175.347 197.194C175.262 197.261 175.166 197.303 175.077 197.36L174.522 197.674C173.78 198.094 173.032 198.516 172.27 198.921C171.508 199.326 170.744 199.726 169.919 200.088L169.525 200.249C169.368 200.318 169.213 200.351 169.052 200.398L168.815 200.466C168.735 200.478 168.658 200.482 168.583 200.492C168.506 200.496 168.428 200.513 168.356 200.515L168.138 200.481C168.033 200.35 167.928 200.296 167.828 200.198C167.722 200.103 167.619 199.989 167.514 199.882C167.408 199.775 167.345 199.615 167.265 199.485L167.06 199.127C166.044 197.334 165.032 195.539 164.018 193.751C162.485 191.041 160.972 188.299 159.427 185.619C158.226 183.536 156.956 181.542 155.743 179.487C155.474 179.034 155.202 178.599 154.941 178.136C154.469 177.277 154.185 176.689 154.068 176.233C153.961 175.773 154 175.467 154.138 175.177C154.198 175.045 154.241 174.89 154.317 174.804C154.437 174.657 154.645 174.737 154.937 174.98C155.236 175.226 155.593 175.658 155.97 176.265C158.22 179.844 160.476 183.709 162.688 187.612C164.336 190.512 165.989 193.422 167.64 196.327L167.604 196.355L167.606 196.348Z" fill="#52525B"/>
<path d="M162.149 169.276C162.319 169.855 162.228 170.402 161.694 170.719C161.485 170.911 161.174 171.029 160.922 171.181L160.737 171.28L160.62 171.331L160.397 171.453L158.563 172.369C158.119 172.594 157.701 172.86 157.252 173.074C156.457 173.447 155.68 173.846 154.849 174.17C154.632 174.253 154.47 174.336 154.2 174.425L153.725 174.622C153.563 174.693 153.416 174.692 153.263 174.73L153.038 174.77C152.964 174.731 152.904 174.693 152.841 174.65C152.719 174.574 152.594 174.464 152.478 174.373L152.167 173.974C152.071 173.833 151.962 173.693 151.917 173.612C151.497 172.966 151.074 172.315 150.655 171.673C150.39 171.265 150.117 170.855 149.892 170.417C149.673 169.977 149.428 169.549 149.312 169.057C149.242 168.752 149.344 168.749 149.635 168.886C149.936 169.019 150.418 169.279 150.786 169.695C151.454 170.427 152.034 171.216 152.649 171.977L153.1 172.545L153.209 172.686C153.24 172.725 153.304 172.797 153.282 172.789C153.279 172.808 153.289 172.816 153.288 172.84C153.299 172.864 153.306 172.955 153.351 172.959C153.37 172.963 153.392 172.971 153.422 172.969L153.467 172.973C153.467 172.973 153.484 172.983 153.56 172.95C154.663 172.478 155.764 171.847 156.87 171.291L160.194 169.65C160.233 169.628 160.295 169.618 160.317 169.573C160.326 169.528 160.31 169.482 160.302 169.438C160.278 169.348 160.247 169.256 160.215 169.164L160.179 169.086L160.124 168.944L159.738 168.124C159.187 167.022 158.615 165.912 157.961 164.862C157.455 164.047 156.849 163.305 156.273 162.55C156.145 162.383 156.007 162.231 155.884 162.061C155.652 161.751 155.539 161.523 155.529 161.321C155.509 161.124 155.588 160.954 155.737 160.753C155.805 160.664 155.856 160.565 155.924 160.488C156.132 160.244 156.645 160.307 157.094 160.729C158.341 162.014 159.302 163.56 160.209 165.148C160.543 165.738 160.863 166.34 161.171 166.953L161.623 167.886L161.84 168.374C161.973 168.669 162.099 168.974 162.192 169.275L162.144 169.278L162.149 169.276Z" fill="#52525B"/>
<path d="M153.083 131.337L154.408 119.561C154.575 118.127 154.682 116.695 154.856 115.264C155.466 110.223 156.084 105.186 156.639 100.146C156.911 97.9113 157.102 95.6595 157.341 93.4334C157.632 90.5778 157.823 87.7068 158.322 84.8658C158.466 83.9781 158.538 84.1054 158.653 84.868C158.709 85.2852 158.786 85.8232 158.874 86.4504C158.914 86.7806 158.965 87.1353 158.99 87.513C159.008 87.8881 159.015 88.2916 159.002 88.7039C158.907 91.6384 158.852 94.5791 158.626 97.5066C158.42 100.437 158.064 103.362 157.683 106.299C157.219 109.808 156.964 113.478 156.595 117.075C156.173 121.025 155.749 124.983 155.322 128.935C155.07 131.367 154.813 133.801 154.561 136.234C154.196 139.917 153.823 143.622 153.566 147.287C153.371 150.137 153.306 152.94 153.218 155.76C153.199 156.381 153.186 156.987 153.17 157.613C153.071 159.931 152.904 160.664 152.331 161.133C152.205 161.242 152.078 161.386 151.959 161.444C151.56 161.648 151.229 160.686 151.215 158.972C151.137 153.898 151.47 148.567 151.915 143.227C152.245 139.264 152.644 135.289 153.039 131.321L153.088 131.323L153.083 131.337Z" fill="#52525B"/>
<path d="M136.511 111.888L139.953 122.999C140.377 124.351 140.846 125.683 141.262 127.032L145.658 141.318C146.322 143.425 147.03 145.536 147.709 147.624C148.625 150.292 149.47 152.991 149.963 155.786C150.101 156.662 150.083 156.546 149.688 155.889C149.496 155.561 149.155 155.109 148.816 154.545C148.64 154.263 148.455 153.961 148.268 153.63C148.168 153.468 148.087 153.297 147.977 153.128C147.899 152.95 147.824 152.765 147.741 152.577C145.532 147.23 143.909 141.714 142.293 136.137C141.343 132.8 140.127 129.392 139.045 126.007C137.866 122.288 136.684 118.565 135.503 114.841C134.777 112.549 134.046 110.26 133.319 107.968C132.205 104.503 131.109 101.013 129.949 97.5923C129.048 94.9296 128.049 92.3571 127.093 89.7478C126.884 89.1739 126.659 88.6186 126.457 88.0354C125.701 85.8748 125.625 85.1424 125.974 84.5235C126.049 84.3846 126.113 84.2092 126.198 84.1187C126.467 83.8066 127.141 84.577 127.781 86.1287C129.668 90.7393 131.342 95.7024 132.98 100.693C134.169 104.408 135.368 108.142 136.562 111.866L136.511 111.888Z" fill="#52525B"/>
<path d="M128.915 139.408C126.046 136.407 123.163 133.412 120.258 130.438C119.184 129.366 118.111 128.293 117.037 127.22C113.307 123.389 109.613 119.53 105.844 115.734C104.18 114.042 102.475 112.369 100.786 110.73C98.6147 108.624 96.4651 106.474 94.4332 104.237C93.8004 103.542 93.9357 103.583 94.6204 104.025C94.9628 104.246 95.4533 104.561 96.0304 104.956C96.6153 105.342 97.2789 105.817 97.9411 106.392L99.7119 107.907L100.593 108.663L101.444 109.457C102.573 110.517 103.701 111.577 104.83 112.637C107.09 114.763 109.255 116.983 111.429 119.211C114.013 121.895 116.856 124.542 119.539 127.254C122.493 130.23 125.421 133.228 128.342 136.236C130.137 138.088 131.93 139.947 133.725 141.799C136.429 144.619 139.139 147.454 141.821 150.255C143.905 152.434 146.041 154.49 148.108 156.647C148.563 157.119 149.031 157.567 149.48 158.054C151.13 159.881 151.544 160.554 151.485 161.269C151.471 161.434 151.481 161.624 151.437 161.75C151.276 162.174 150.361 161.633 149.104 160.364C145.34 156.618 141.487 152.564 137.589 148.506C134.691 145.494 131.779 142.464 128.878 139.448L128.91 139.41L128.915 139.408Z" fill="#52525B"/>
<path d="M121.058 151.14C117.172 149.581 113.278 148.031 109.375 146.515L105.082 144.898L90.0338 139.004C87.797 138.159 85.5478 137.313 83.3257 136.473C80.4623 135.426 77.5923 134.352 74.8498 133.004C73.9925 132.585 74.1342 132.587 74.9431 132.71C75.3885 132.773 75.965 132.856 76.6331 132.952C77.3302 133.07 78.1295 133.25 78.9761 133.491C79.7239 133.717 80.4826 133.914 81.2193 134.169L83.4321 134.924C84.9028 135.44 86.3734 135.955 87.8491 136.468C90.7682 137.556 93.6911 138.678 96.602 139.852C100.087 141.245 103.779 142.547 107.369 143.906C111.315 145.41 115.255 146.939 119.189 148.483C121.606 149.438 124.028 150.391 126.444 151.345C130.104 152.798 133.78 154.261 137.409 155.702C140.238 156.806 143.049 157.806 145.86 158.871C146.483 159.104 147.091 159.32 147.709 159.568C150.005 160.487 150.678 160.905 150.964 161.563C151.033 161.709 151.131 161.878 151.149 162.006C151.211 162.45 150.148 162.357 148.434 161.766C143.35 160.013 138.1 157.945 132.826 155.852C128.909 154.294 124.973 152.733 121.052 151.178L121.063 151.137L121.058 151.14Z" fill="#52525B"/>
<path d="M85.1926 86.4376C84.5663 83.8784 84.1581 81.2764 83.8244 78.6771C83.7064 77.7273 83.6059 76.7756 83.5228 75.8222C83.4329 74.9837 83.4479 74.1346 83.4477 73.2921C83.4526 72.4474 83.4174 71.6085 83.4895 70.7637L83.6306 68.2389L83.9328 65.7318C83.9984 64.9901 84.1533 64.2563 84.276 63.519C84.4134 62.787 84.4942 62.0386 84.6882 61.3231C84.9324 60.4028 85.1742 59.4778 85.416 58.5527C85.7365 57.652 86.1186 56.7655 86.5762 55.9224C86.86 55.3973 86.8789 55.4891 86.8712 56.0169C86.8662 56.2784 86.8792 56.6557 86.8526 57.0916C86.8393 57.3095 86.8352 57.547 86.7961 57.788C86.752 58.0313 86.6978 58.279 86.6233 58.5355C85.766 62.223 85.2607 65.9446 85.0283 69.7527C84.9967 70.3204 84.9747 70.8957 84.9624 71.4785C84.9727 72.0573 85.0152 72.6397 85.0475 73.2265L85.162 74.9851C85.2242 75.5706 85.2842 76.1512 85.3464 76.7366C85.572 79.3009 86.0322 81.8446 86.5527 84.3738C86.7296 85.1505 86.934 85.921 87.1261 86.6911C87.3029 87.4679 87.535 88.2322 87.7772 88.9921L88.2979 90.7315L88.8992 92.4474C89.2759 93.5961 89.7583 94.7102 90.2311 95.8166C90.9893 97.5285 91.9034 99.1307 92.8226 100.731C93.0256 101.084 93.224 101.427 93.4343 101.782C93.8302 102.427 94.0543 102.877 94.1478 103.231C94.2514 103.58 94.2423 103.82 94.1586 104.057C94.1246 104.166 94.0997 104.295 94.0519 104.375C93.89 104.64 93.3406 104.239 92.6088 103.335C90.546 100.604 88.9224 97.3807 87.5837 94.0617C86.6234 91.5841 85.7697 89.048 85.1696 86.4536L85.2101 86.4359L85.1926 86.4376Z" fill="#52525B"/>
<path d="M113.877 69.8628C112.042 68.2878 110.15 66.7493 108.096 65.4234C107.351 64.9313 106.589 64.4698 105.813 64.027C103.145 62.3457 100.29 60.953 97.3512 59.7205C96.032 59.2152 94.7086 58.6881 93.3498 58.3062C92.9195 58.1709 92.4787 58.0521 92.054 57.9026C91.6242 57.7553 91.194 57.62 90.7583 57.4989C90.3253 57.3707 89.89 57.2376 89.4574 57.0975C89.0222 56.9644 88.6121 56.7554 88.1833 56.5842C87.6573 56.3495 87.7521 56.2784 88.2674 56.2055C88.5228 56.1642 88.8954 56.1126 89.3403 56.0588C89.777 56.0263 90.2785 56.0537 90.8053 56.1349C94.5429 56.7693 98.1353 58.0802 101.502 59.8199C102.51 60.3382 103.534 60.8786 104.583 61.3791C105.612 61.9173 106.633 62.4888 107.639 63.055C109.783 64.4177 111.886 65.8581 113.811 67.4938C115.031 68.4612 116.146 69.5449 117.28 70.6029L119.124 72.4925L119.698 73.1538C120.082 73.5923 120.471 74.0285 120.855 74.467C121.22 74.9192 121.586 75.3715 121.95 75.8188C122.232 76.1721 122.536 76.5045 122.806 76.8573C123.081 77.2079 123.351 77.5608 123.627 77.9114C123.897 78.2642 124.192 78.6059 124.447 78.9654L125.214 80.0607C125.435 80.3878 125.68 80.687 125.889 81.0256C126.609 82.3065 126.7 82.785 126.43 83.2626C126.371 83.3709 126.332 83.4944 126.269 83.5689C126.083 83.8096 125.452 83.4679 124.835 82.6251C123.01 80.1145 121.135 77.4964 118.986 75.0511L117.779 73.6953L115.868 71.7408L113.841 69.8903L113.868 69.8552L113.877 69.8628Z" fill="#52525B"/>
<path d="M179.665 195.004C175.061 197.584 170.391 200.052 165.647 202.386C163.915 203.235 162.19 204.109 160.424 204.896C158.864 205.592 157.291 206.259 155.678 206.866C154.054 207.462 152.456 208.062 150.6 208.323C150.362 208.35 150.118 208.363 149.854 208.361C149.723 208.354 149.581 208.34 149.443 208.33C149.29 208.291 149.136 208.276 148.982 208.208C148.341 207.923 148.074 207.604 147.736 207.288C147.106 206.651 146.569 205.991 146.047 205.324C145.016 203.979 144.053 202.611 143.133 201.217C141.496 198.742 139.9 196.237 138.368 193.739C137.379 192.134 136.404 190.518 135.501 188.863C134.604 187.206 133.703 185.54 133.145 183.722C133 183.144 132.943 182.892 132.977 182.9C133.015 182.902 133.152 183.154 133.493 183.54C133.824 183.931 134.331 184.463 134.87 185.14C135.138 185.476 135.443 185.837 135.724 186.238C136.004 186.639 136.284 187.077 136.562 187.538C138.568 190.782 140.495 194.079 142.564 197.289C143.592 198.9 144.644 200.495 145.723 202.072C146.26 202.862 146.805 203.642 147.373 204.394C147.937 205.137 148.532 205.907 149.145 206.481C149.324 206.667 149.514 206.772 149.563 206.81C149.656 206.852 149.906 206.865 150.136 206.859C150.637 206.834 151.193 206.719 151.751 206.58C152.867 206.291 153.994 205.897 155.103 205.463C157.328 204.587 159.527 203.564 161.693 202.536C166.462 200.267 171.154 197.808 175.774 195.25C178.621 193.671 181.444 192.055 184.216 190.368C185.263 189.726 186.308 189.079 187.331 188.412C188.347 187.743 189.385 187.057 190.275 186.313C190.383 186.219 190.493 186.117 190.533 186.07C190.59 186.01 190.654 185.94 190.665 185.859C190.688 185.766 190.681 185.711 190.677 185.6C190.667 185.475 190.64 185.34 190.628 185.21C190.524 184.666 190.344 184.103 190.161 183.547C189.776 182.431 189.318 181.33 188.837 180.245C187.321 176.862 185.538 173.662 183.749 170.451C183.346 169.751 182.949 169.064 182.541 168.354C181.049 165.721 180.654 164.857 180.765 164.042C180.789 163.861 180.785 163.633 180.84 163.503C181.022 163.046 182 163.942 183.214 165.843C185 168.66 186.698 171.627 188.254 174.72C189.033 176.27 189.787 177.842 190.486 179.456C190.836 180.263 191.178 181.079 191.495 181.919C191.808 182.765 192.112 183.604 192.332 184.562C192.369 184.746 192.413 184.916 192.44 185.128L192.48 185.434L192.493 185.888C192.438 186.201 192.409 186.526 192.222 186.791C192.139 186.927 192.055 187.058 191.936 187.181L191.767 187.355L191.649 187.466C191.061 187.995 190.517 188.369 189.954 188.769C188.837 189.548 187.71 190.267 186.574 190.977C184.3 192.387 181.997 193.734 179.688 195.053L179.659 195.019L179.665 195.004Z" fill="#52525B"/>
<path d="M131.125 174.981C130.442 175.411 129.771 175.852 129.129 176.305C128.809 176.533 128.504 176.767 128.222 176.997C127.953 177.204 127.636 177.543 127.685 177.504C127.669 177.523 127.666 177.554 127.665 177.578C127.66 177.568 127.665 177.642 127.682 177.717C127.689 177.785 127.711 177.87 127.728 177.945C127.8 178.267 127.911 178.619 128.032 178.966C128.284 179.669 128.598 180.373 128.943 181.053C129.292 181.73 129.68 182.397 130.109 182.969C130.213 183.112 130.327 183.25 130.432 183.369C130.486 183.434 130.542 183.486 130.592 183.541C130.642 183.595 130.707 183.643 130.712 183.653C130.774 183.708 130.845 183.742 130.946 183.709C131.219 183.654 131.62 183.52 131.976 183.393C132.347 183.26 132.718 183.114 133.087 182.964C133.835 182.66 134.579 182.333 135.323 181.995C137.496 181.006 139.633 179.904 141.787 178.852C149.391 175.121 156.951 171.245 164.463 167.318C167.789 165.564 171.1 163.74 174.314 161.864C175.345 161.265 176.368 160.651 177.375 160.015C177.875 159.701 178.382 159.39 178.865 159.067L179.215 158.825C179.314 158.751 179.47 158.642 179.512 158.6C179.561 158.561 179.602 158.519 179.641 158.472C179.678 158.421 179.66 158.358 179.665 158.303L179.653 158.214L179.645 158.17L179.626 158.078C179.591 157.952 179.594 157.828 179.554 157.692C179.497 157.428 179.425 157.159 179.348 156.892C179.187 156.356 178.999 155.814 178.785 155.283C178.355 154.229 177.944 153.137 177.324 152.183C176.953 151.58 176.716 151.413 176.762 151.369C176.798 151.341 177.152 151.469 177.658 151.895C178.17 152.307 178.818 152.983 179.536 153.858C179.89 154.298 180.211 154.811 180.533 155.377C180.85 155.945 181.162 156.556 181.396 157.284C181.442 157.447 181.5 157.622 181.538 157.793C181.566 157.852 181.566 158.046 181.58 158.181C181.59 158.33 181.609 158.475 181.611 158.622C181.616 159.215 181.229 159.703 180.764 160.077C180.191 160.547 179.694 160.877 179.165 161.233C178.118 161.927 177.05 162.538 175.984 163.165C173.849 164.402 171.697 165.588 169.535 166.754C165.206 169.09 160.819 171.339 156.393 173.546C151.093 176.178 145.695 179.135 140.242 181.805C138.741 182.534 137.226 183.246 135.69 183.926C134.921 184.263 134.144 184.598 133.344 184.908C132.947 185.064 132.533 185.21 132.11 185.349C131.891 185.416 131.677 185.48 131.429 185.536C131.145 185.596 130.778 185.645 130.458 185.602C130.13 185.54 129.827 185.39 129.566 185.187C129.423 185.078 129.325 184.986 129.236 184.901C129.152 184.814 129.056 184.727 128.985 184.64C128.667 184.291 128.412 183.931 128.167 183.567C127.69 182.84 127.286 182.098 126.927 181.337C126.567 180.575 126.244 179.798 125.992 178.966C125.93 178.757 125.874 178.546 125.825 178.326C125.802 178.212 125.781 178.104 125.761 177.983C125.745 177.872 125.728 177.744 125.722 177.576C125.709 177.263 125.761 176.946 125.933 176.676C126.002 176.539 126.109 176.416 126.209 176.29C126.315 176.178 126.382 176.102 126.473 176.021C127.303 175.256 128.163 174.696 129.035 174.124C129.908 173.565 130.784 173.027 131.672 172.502C133.444 171.454 135.234 170.456 137.032 169.478C142.487 166.514 148.074 163.738 153.593 160.999C157.886 158.873 162.065 156.739 166.355 154.71C167.3 154.266 168.215 153.811 169.179 153.382C172.753 151.79 173.978 151.447 174.962 151.617C175.187 151.654 175.462 151.668 175.609 151.733C176.101 151.948 174.761 152.836 172.195 154.039C164.59 157.664 156.58 161.544 148.607 165.555C145.649 167.053 142.698 168.566 139.767 170.123C136.844 171.682 133.932 173.278 131.159 175.002L131.125 174.969V174.981Z" fill="#52525B"/>
<path d="M162.546 151.903C162.565 151.8 162.535 151.749 162.545 151.668C162.512 151.623 162.527 151.552 162.494 151.519C162.484 151.5 162.475 151.48 162.464 151.456C162.452 151.431 162.397 151.379 162.366 151.34C162.295 151.253 162.215 151.188 162.138 151.127C161.986 151 161.834 150.937 161.667 150.892C161.499 150.848 161.305 150.839 161.078 150.874C160.632 150.94 160.106 151.158 159.61 151.465C159.11 151.766 158.619 152.135 158.141 152.534C157.512 153.104 156.981 153.779 156.477 154.536C154.684 157.185 153.34 160.267 151.838 163.235C151.183 164.566 150.498 165.898 149.779 167.197C149.294 168.022 148.832 168.868 148.235 169.636C147.663 170.417 146.976 171.137 146.161 171.701C145.665 172.06 145.669 171.94 145.853 171.436C145.947 171.182 146.058 170.821 146.225 170.424C146.297 170.215 146.358 169.982 146.462 169.76C146.567 169.543 146.692 169.329 146.835 169.113C147.071 168.709 147.288 168.302 147.54 167.914L148.233 166.703C148.675 165.879 149.114 165.049 149.53 164.195C150.383 162.507 151.235 160.79 152.137 159.063C152.669 158.016 153.208 156.955 153.753 155.884C154.018 155.344 154.337 154.815 154.631 154.274C154.972 153.753 155.273 153.214 155.688 152.72C155.9 152.444 156.11 152.164 156.378 151.917C156.631 151.664 156.881 151.39 157.155 151.181C157.677 150.734 158.243 150.315 158.876 149.948C159.509 149.594 160.209 149.264 161.05 149.183C161.882 149.083 162.848 149.396 163.429 149.954C163.528 150.034 163.612 150.121 163.69 150.21C163.775 150.285 163.858 150.396 163.937 150.526C164.12 150.759 164.199 151.03 164.281 151.295C164.378 151.824 164.322 152.314 164.213 152.756C163.975 153.638 163.564 154.385 163.113 155.101C162.767 155.636 162.384 156.145 161.965 156.63C161.76 156.867 161.529 157.116 161.284 157.335C161.047 157.545 160.812 157.76 160.568 157.967C159.597 158.783 158.552 159.494 157.508 160.17C155.891 161.222 154.291 162.207 152.807 163.282C152.477 163.515 152.176 163.771 151.854 164.007C150.66 164.895 150.234 165.106 149.671 165.011C149.545 164.99 149.395 164.985 149.29 164.943C149.111 164.874 149.089 164.684 149.207 164.39C149.318 164.094 149.581 163.707 149.993 163.273C151.228 162.018 152.732 160.999 154.209 160.039C155.694 159.081 157.202 158.237 158.531 157.223C159.028 156.852 159.504 156.461 159.957 156.05C160.356 155.692 160.752 155.223 161.116 154.751C161.478 154.275 161.805 153.777 162.058 153.278C162.314 152.783 162.492 152.268 162.504 151.904L162.551 151.901L162.546 151.903Z" fill="#52525B"/>
<path d="M70.8738 69.1755C73.5352 65.6745 76.5873 62.4322 80.0425 59.6435C80.929 58.9717 81.7727 58.2481 82.7043 57.6331L84.0743 56.6785C84.5412 56.3734 85.0224 56.0857 85.4963 55.7953C86.4177 55.1848 87.4593 54.6865 88.4719 54.1656C88.7235 54.0257 88.9839 53.9174 89.2466 53.8139L90.0352 53.4915C90.5629 53.2894 91.0749 53.0412 91.6187 52.8733C94.7265 51.7572 97.948 51.0507 101.189 50.6186C102.616 50.3932 104.054 50.3219 105.487 50.188C106.922 50.1358 108.361 50.0405 109.796 50.0651C111.233 50.0417 112.665 50.1142 114.096 50.1698C114.811 50.2096 115.525 50.2734 116.24 50.3252C116.957 50.3698 117.666 50.4478 118.379 50.5356C121.229 50.8408 124.058 51.3373 126.843 52.0483L127.888 52.3086L128.921 52.6214C129.609 52.8258 130.295 53.0374 130.96 53.2939L132.97 54.0205L134.947 54.8324C135.538 55.0622 136.109 55.3297 136.681 55.5973L138.4 56.3928L140.086 57.2616L140.928 57.6995L141.748 58.1703C143.961 59.3794 146.042 60.7998 148.053 62.2802C150.611 64.2096 153.003 66.3948 155.028 68.8885C155.521 69.5205 155.979 70.18 156.452 70.8329C156.863 71.5243 157.295 72.1949 157.676 72.8997C158.418 74.3182 158.932 75.8486 159.251 77.3937C159.406 78.3689 159.445 78.7879 159.383 78.7737C159.316 78.7617 159.129 78.3134 158.744 77.5749C158.647 77.3938 158.54 77.1932 158.429 76.9708C158.293 76.7596 158.15 76.5337 157.995 76.2954C157.672 75.8182 157.37 75.2675 156.908 74.7278C156.468 74.1841 156.125 73.5335 155.616 72.9201C155.381 72.6046 155.142 72.2793 154.904 71.942C154.65 71.6113 154.369 71.2869 154.111 70.9465C150.364 66.0562 145.217 62.1867 139.659 59.1401C136.868 57.6129 133.924 56.3298 130.911 55.2243C127.911 54.0952 124.803 53.332 121.603 52.7742C117.781 52.1177 113.794 51.8344 109.806 51.8872C105.813 51.9422 101.803 52.3349 97.9333 53.1312L97.1337 53.2876L96.3497 53.4902L94.7744 53.8927C94.2517 54.0277 93.7493 54.2187 93.2331 54.3804C92.7261 54.5616 92.1938 54.6891 91.7052 54.9093C90.7189 55.3303 89.7026 55.6879 88.7792 56.2167C88.3118 56.4689 87.8283 56.687 87.3673 56.9658L85.989 57.8122C82.3243 60.0918 79.0343 62.92 76.1009 66.0513C75.6422 66.5295 75.191 67.0103 74.7784 67.5213C74.3561 68.0247 73.9191 68.5228 73.5014 69.036C72.7075 70.0855 71.8773 71.1097 71.151 72.212C70.3787 73.2815 69.716 74.4149 69.0141 75.53C68.6839 76.0992 68.3757 76.6763 68.0528 77.2481L67.5796 78.1097L67.1477 78.9945C63.6244 86.1084 61.5056 93.973 61.5842 101.822C61.6097 104.869 61.9177 107.88 62.4641 110.84C63.0279 113.798 63.8379 116.695 64.8517 119.532C65.279 120.788 65.8056 121.983 66.3184 123.213C66.8225 124.347 67.2368 125.291 67.618 126.06C67.9862 126.841 68.2831 127.471 68.5271 127.989C68.9741 129.053 69.1988 129.685 69.2684 130.274C69.3007 130.536 69.3799 130.873 69.3656 131.05C69.3367 131.351 68.993 131.102 68.3735 130.383C68.0638 130.024 67.6813 129.55 67.2887 128.95C66.8759 128.36 66.4381 127.638 66.0096 126.807C64.6977 124.348 63.5552 121.756 62.6329 119.062C61.7158 116.365 60.9988 113.574 60.4782 110.721C59.965 107.871 59.7182 104.951 59.661 102.018C59.6065 99.078 59.8906 96.131 60.3505 93.2071C61.1083 88.868 62.426 84.6545 64.1827 80.6077C64.5924 79.5854 65.1223 78.6105 65.5909 77.6094C66.0839 76.6213 66.6404 75.6641 67.1702 74.6893C67.7608 73.7526 68.3077 72.7879 68.9323 71.8716C69.5666 70.9629 70.1622 70.0239 70.8499 69.1507L70.8963 69.1715L70.8738 69.1755Z" fill="#52525B"/>
<path d="M95.5827 97.5045L96.1834 96.4985C96.378 96.1598 96.5822 95.8287 96.8227 95.5228C97.2896 94.8937 97.7441 94.2642 98.2229 93.6475L99.7896 91.9054C100.322 91.3363 100.926 90.8297 101.489 90.288C103.834 88.2159 106.483 86.4883 109.34 85.164L110.919 84.4712C111.445 84.2403 112.001 84.0728 112.542 83.8712C113.613 83.4484 114.756 83.2058 115.877 82.9264C116.371 82.8095 116.888 82.7655 117.394 82.685C117.903 82.6263 118.403 82.5073 118.918 82.4992C119.947 82.4661 120.967 82.3487 121.998 82.4502C122.514 82.4829 123.028 82.4988 123.539 82.5457L124.899 82.774C124.963 82.7811 125.066 82.8184 125.134 82.8064L125.289 82.603L125.451 82.3784C125.523 82.2705 125.608 82.18 125.689 82.0796L126.177 81.4945C127.497 79.9548 129.074 78.65 130.806 77.6074C132.528 76.5572 134.378 75.7277 136.283 75.0921C139.665 73.9737 143.24 73.383 146.795 73.4085C149.073 73.4222 151.387 73.6916 153.588 74.4346C154.686 74.7953 155.765 75.2705 156.722 75.9405C156.96 76.1074 157.202 76.272 157.418 76.4717C157.632 76.6665 157.87 76.8334 158.065 77.0539C158.269 77.2652 158.457 77.4831 158.635 77.7054C158.798 77.9464 158.971 78.171 159.118 78.4186C159.437 79.0564 159.528 79.3405 159.463 79.3574C159.392 79.3765 159.141 79.1275 158.687 78.761C158.424 78.6052 158.154 78.394 157.803 78.2063C157.71 78.1646 157.622 78.1087 157.521 78.0763C157.434 78.0204 157.339 77.9738 157.246 77.9201C157.066 77.8105 156.84 77.7329 156.628 77.6317C156.213 77.425 155.706 77.2821 155.221 77.0825C154.973 76.9849 154.72 76.8895 154.463 76.7844C154.195 76.6956 153.925 76.602 153.656 76.4964C149.687 75.2034 145.198 75.1519 140.951 75.9252C138.824 76.3344 136.735 76.9443 134.757 77.8005C132.788 78.6643 130.921 79.7548 129.294 81.1108C128.798 81.5108 128.349 81.9557 127.903 82.4103C127.693 82.65 127.497 82.8951 127.288 83.1397C127.187 83.2609 127.085 83.3821 126.995 83.5157L126.563 84.1413L126.067 84.8365C125.793 84.8268 125.487 84.7607 125.203 84.7266L123.914 84.532C123.264 84.3985 122.592 84.4226 121.924 84.3917C119.246 84.335 116.549 84.8056 113.977 85.5687C111.138 86.4136 108.443 87.7316 106.006 89.39C103.57 91.0484 101.376 93.0538 99.559 95.3415C98.4573 96.7617 97.479 98.2751 96.7036 99.8821L96.1421 101.101C96.0547 101.304 95.9402 101.502 95.8749 101.713L95.6666 102.346L95.1691 103.843L94.925 104.569C94.925 104.569 94.9158 104.614 94.9029 104.626H94.8357L94.7037 104.631L93.6574 104.666C93.3537 104.669 93.2484 104.692 93.0611 104.709L92.5541 104.761C92.2118 104.799 91.8782 104.869 91.5354 104.919C90.8587 105.051 90.1906 105.214 89.5212 105.414C88.1948 105.813 86.9006 106.346 85.6603 106.967C83.165 108.203 80.886 109.833 78.867 111.691C77.3158 113.156 75.9579 114.771 74.8343 116.507C73.7276 118.253 72.8552 120.121 72.3058 122.065C72.0838 122.928 71.9147 123.774 71.8187 124.659C71.6221 126.289 71.6854 127.369 71.6736 128.134C71.6765 128.516 71.6397 128.827 71.5998 129.092C71.5699 129.352 71.5092 129.573 71.4168 129.779C71.3349 129.968 71.266 130.21 71.1689 130.341C71.0066 130.554 70.7636 130.336 70.4759 129.726C70.4045 129.575 70.3216 129.399 70.2498 129.195C70.1904 128.991 70.1269 128.766 70.0643 128.516C69.9215 128.019 69.8597 127.422 69.7933 126.75C69.5338 122.727 70.945 118.608 73.2783 115.163C75.6126 111.693 78.7683 108.735 82.4077 106.467C85.1137 104.797 88.1082 103.453 91.3951 102.859C91.806 102.785 92.2191 102.716 92.6433 102.683L93.2603 102.618L93.2925 102.622L93.3229 102.609L93.4103 102.341L93.5933 101.783C93.7243 101.413 93.8162 101.025 93.9864 100.674L94.473 99.5941L94.9618 98.5193C95.12 98.1553 95.3463 97.8321 95.5386 97.4885L95.5901 97.5072L95.5827 97.5045Z" fill="#52525B"/>
<path d="M141.535 161.434C140.237 161.35 138.916 161.411 137.679 161.676C137.055 161.791 136.461 161.981 135.919 162.219C135.388 162.452 134.9 162.778 134.669 163.103L134.558 163.27C134.546 163.322 134.532 163.369 134.507 163.421C134.511 163.467 134.514 163.513 134.5 163.56C134.502 163.618 134.529 163.689 134.535 163.751C134.605 164.003 134.765 164.239 135.019 164.481C135.498 164.902 136.232 165.24 137.015 165.45C137.8 165.665 138.639 165.786 139.478 165.83C139.901 165.845 140.306 165.85 140.738 165.808C141.17 165.777 141.599 165.73 142.03 165.671C142.893 165.546 143.748 165.377 144.602 165.155C146.119 164.784 147.605 164.244 149.039 163.633C150.892 162.861 152.655 161.923 154.642 161.345C155.277 161.19 155.204 161.228 154.846 161.674C154.505 162.142 153.852 163.012 152.848 163.641C152.39 163.901 151.932 164.16 151.468 164.406C151.008 164.66 150.531 164.893 150.043 165.101C149.071 165.528 148.081 165.915 147.065 166.261C145.043 166.959 142.891 167.42 140.673 167.522C139.291 167.556 137.941 167.453 136.573 167.129C135.895 166.961 135.207 166.732 134.547 166.368C133.894 166.006 133.22 165.459 132.871 164.64C132.825 164.531 132.778 164.416 132.742 164.302L132.673 163.949C132.617 163.726 132.645 163.449 132.663 163.188C132.71 162.938 132.794 162.688 132.897 162.467C133.024 162.269 133.134 162.038 133.289 161.888C133.883 161.203 134.6 160.806 135.311 160.488C136.747 159.893 138.239 159.651 139.719 159.603C140.631 159.556 141.536 159.624 142.431 159.709C143.335 159.825 144.188 159.975 145.05 160.133C147.649 160.607 150.227 161.179 152.793 161.556C154.785 161.842 156.76 161.977 158.708 161.912C159.134 161.896 159.556 161.87 159.978 161.832C160.773 161.796 161.276 161.722 161.652 161.769C162.02 161.785 162.252 161.889 162.478 162.084C162.58 162.17 162.706 162.256 162.779 162.347C162.898 162.507 162.811 162.687 162.533 162.874C162.255 163.061 161.779 163.257 161.153 163.367C159.288 163.726 157.345 163.724 155.435 163.572C153.518 163.417 151.621 163.112 149.743 162.782C148.36 162.529 146.974 162.27 145.585 162.02C144.895 161.904 144.206 161.788 143.52 161.682C142.83 161.578 142.204 161.506 141.535 161.475L141.532 161.429L141.535 161.434Z" fill="#52525B"/>
<path d="M153.668 162.22C152.731 162.696 151.786 163.164 150.857 163.642C151.738 163.049 152.721 162.506 153.668 162.22Z" fill="#52525B"/>
<path d="M175.075 195.957C174.334 197.378 172.136 198.584 170.235 199.318C170.058 199.384 169.815 199.308 169.511 199.106C171.289 198.108 173.188 197.033 175.075 195.957Z" fill="#52525B"/>
<path d="M166.171 67.8464C166.251 67.9764 166.073 68.0901 165.797 68.2051C165.711 68.2429 165.457 68.2483 165.409 68.2105C165.319 68.1378 165.223 68.0623 165.161 67.9833C165.145 67.9611 165.065 67.7543 164.987 67.5235C164.926 67.2909 164.854 67.0339 164.814 66.8981C164.737 66.6433 164.717 66.381 164.712 66.124C164.707 65.5958 164.685 65.0694 164.738 64.5456C164.749 64.4284 164.774 64.3116 164.82 64.2029C164.982 63.8198 165.041 63.4283 165.079 63.0288C165.084 62.9617 165.109 62.8978 165.06 62.8193C164.97 62.6937 165.187 61.6261 165.274 61.4996C165.475 61.1875 165.634 60.8643 165.82 60.5589C165.849 60.5167 165.846 60.459 165.929 60.4403C166.133 60.3923 166.137 60.2845 166.188 60.1855C166.253 60.051 166.33 59.9169 166.441 59.8032C166.508 59.7504 166.633 59.7189 166.735 59.6745C166.826 59.6345 167.016 59.7397 167.037 59.7716C167.083 59.8573 167.204 59.8399 167.295 59.8648C167.324 59.8754 167.366 59.8865 167.388 59.8945C167.469 59.9358 167.661 60.8355 167.638 60.9162C167.637 60.9282 167.584 61.2168 167.527 61.5244C167.476 61.8298 167.429 62.1449 167.431 62.2146C167.434 62.2843 167.374 62.3398 167.332 62.4055C167.304 62.4357 167.236 63.355 167.23 63.3932C167.168 63.5734 167.2 63.7714 167.02 63.933C166.986 63.9654 166.987 64.0062 166.981 64.0444C166.951 64.3698 166.844 64.6876 166.77 65.009C166.731 65.1732 166.737 65.3415 166.706 65.5084C166.702 65.5394 166.679 65.5674 166.663 65.5981C166.644 65.6358 166.625 65.6735 166.619 65.7117C166.586 66.109 166.474 66.5058 166.509 66.9031C166.51 66.9967 166.339 67.4371 166.36 67.5459C166.357 67.6058 166.136 67.8091 166.171 67.8584V67.8464Z" fill="#52525B"/>
<path d="M170.534 69.3792C170.56 69.4857 170.401 69.4849 170.124 69.4294C170.038 69.4144 169.803 69.3052 169.782 69.2613C169.745 69.1832 169.709 69.1051 169.687 69.0323C169.666 68.9883 169.826 68.4348 169.901 68.243C169.958 68.053 170.068 67.8985 170.186 67.7467C170.429 67.4457 170.684 67.1451 170.983 66.8845C171.047 66.8268 171.121 66.7766 171.209 66.7437C171.497 66.6292 171.745 66.4675 171.986 66.2913C172.027 66.2615 172.074 66.2464 172.092 66.1798C172.112 66.0533 172.864 65.6936 172.983 65.7003C173.267 65.6935 173.537 65.6695 173.81 65.6792C173.848 65.6806 173.881 65.6481 173.931 65.7027C174.038 65.8266 174.11 65.7835 174.187 65.779C174.297 65.7661 174.408 65.7821 174.519 65.81C174.576 65.8264 174.635 65.9006 174.695 65.9627C174.745 66.0173 174.739 66.2379 174.726 66.2614C174.688 66.3369 174.734 66.4345 174.746 66.5237C174.747 66.5526 174.756 66.5961 174.755 66.6201C174.743 66.6724 174.296 67.0982 174.258 67.1089C174.239 67.0938 173.581 67.3705 173.524 67.4308C173.489 67.4584 173.437 67.4397 173.392 67.4357C173.363 67.4251 172.9 67.7519 172.882 67.7657C172.771 67.8025 172.695 67.9006 172.533 67.866C172.498 67.8576 172.482 67.8763 172.464 67.89C172.303 68.0139 172.108 68.0934 171.933 68.2C171.841 68.2519 171.776 68.3336 171.691 68.4002C171.676 68.4069 171.651 68.418 171.633 68.4198C171.608 68.4309 171.58 68.4371 171.562 68.4508C171.396 68.6298 171.172 68.7754 171.066 69.0045C171.039 69.0515 170.772 69.21 170.749 69.2788C170.733 69.3095 170.513 69.3353 170.522 69.3788L170.534 69.3792Z" fill="#52525B"/>
<path d="M50.8691 816.385C52.1907 817.042 53.6954 816.764 54.23 815.764C54.7645 814.763 54.1265 813.42 52.8048 812.762C51.4832 812.105 49.9785 812.383 49.4439 813.384C48.9094 814.384 49.5474 815.728 50.8691 816.385Z" fill="#52525B"/>
<path opacity="0.97" d="M132.537 847.579C133.67 848.142 135.14 847.565 135.822 846.29C136.503 845.015 136.137 843.525 135.004 842.962C133.871 842.398 132.401 842.975 131.719 844.25C131.038 845.525 131.404 847.015 132.537 847.579Z" fill="#52525B"/>
<g opacity="0.25">
<path d="M74.2006 858.879C75.8399 859.694 77.8539 859.073 78.699 857.492C79.5441 855.91 78.9003 853.967 77.2609 853.152C75.6216 852.337 73.6076 852.958 72.7625 854.539C71.9174 856.121 72.5613 858.064 74.2006 858.879Z" fill="#52525B"/>
<path d="M116.806 749.506C116.461 750.011 96.7523 785.068 97.4899 785.68C99.4649 787.319 133.304 803.492 133.304 803.492C133.304 803.492 151.894 769.912 151.532 767.85C151.186 765.876 116.804 749.499 116.804 749.499L116.806 749.506Z" fill="#52525B"/>
</g>
<path d="M88.6019 786.441C88.5719 785.803 88.7779 785.276 88.945 784.809C89.01 784.636 89.0533 784.452 89.1292 784.285C89.3826 783.682 89.6795 783.101 89.9953 782.535C90.1295 782.284 90.2938 782.041 90.4389 781.795C90.6312 781.487 90.8481 781.184 91.0919 780.907C91.1667 780.819 91.18 780.845 91.1624 780.942C91.142 781.045 91.1069 781.226 91.0307 781.42C90.9035 781.761 90.7708 782.099 90.6436 782.44C90.5192 782.776 90.3377 783.09 90.1779 783.415C89.9791 783.8 89.867 784.241 89.7442 784.663C89.6126 785.128 89.4536 785.606 89.4536 786.03C89.4585 786.291 89.5125 786.549 89.6241 786.79C89.7996 787.156 90.0711 787.496 90.4142 787.78C90.6845 787.994 91.0104 788.129 91.3058 788.309C91.3763 788.344 91.4414 788.377 91.5092 788.417C91.7474 788.575 91.7869 788.694 91.7296 788.904C91.718 788.952 91.712 789.002 91.695 789.046C91.6385 789.19 91.4603 789.254 91.2205 789.214C90.8746 789.142 90.5239 789.027 90.2013 788.847C89.887 788.651 89.5898 788.41 89.3178 788.109C88.9193 787.672 88.646 787.053 88.5967 786.425L88.6185 786.423L88.6019 786.441Z" fill="#52525B"/>
<path d="M111.316 742.68C111.606 742.42 111.929 742.163 112.349 741.954C112.797 741.76 113.257 741.67 113.671 741.678C113.98 741.666 114.264 741.674 114.548 741.709C115.522 741.916 116.342 742.323 117.151 742.712C117.503 742.901 117.881 743.029 118.217 743.223C118.434 743.344 118.662 743.444 118.865 743.591C119.065 743.744 119.254 743.917 119.443 744.078C119.559 744.182 119.534 744.203 119.376 744.23C119.22 744.251 118.905 744.327 118.591 744.323C117.525 744.197 116.69 743.729 115.805 743.328C115.278 743.08 114.675 743.025 114.147 742.961C113.847 742.918 113.571 742.933 113.319 742.98C113.081 743.04 112.853 743.119 112.618 743.314C112.334 743.537 112.055 743.816 111.792 744.116C111.401 744.577 111.026 745.073 110.702 745.601C110.454 746.015 110.279 746.458 110.02 746.879C109.964 746.97 109.919 747.067 109.85 747.159C109.613 747.498 109.4 747.525 109.145 747.424C109.082 747.4 109.022 747.383 108.968 747.356C108.795 747.257 108.759 747.027 108.817 746.751C108.956 746.363 109.092 745.954 109.283 745.558C109.485 745.168 109.708 744.776 109.959 744.384C110.332 743.801 110.757 743.224 111.297 742.664L111.324 742.677L111.316 742.68Z" fill="#52525B"/>
<path d="M158.862 768.069C159.004 767.596 159.138 767.153 159.057 766.662C159.05 766.572 159.013 766.487 158.987 766.395C158.952 766.331 158.953 766.292 158.913 766.212C158.807 765.947 158.568 765.663 158.358 765.36C158.141 765.047 157.886 764.754 157.611 764.471C157.368 764.218 157.095 763.996 156.831 763.772C156.479 763.491 156.131 763.205 155.799 762.901C155.693 762.802 155.721 762.802 155.843 762.83C155.963 762.863 156.203 762.903 156.453 763.001C157.33 763.364 158.218 763.746 158.941 764.398C159.16 764.592 159.39 764.78 159.597 765.022C159.81 765.253 160.039 765.493 160.195 765.869C160.462 766.552 160.502 767.287 160.362 767.973C160.258 768.386 160.095 768.768 159.927 769.135C159.671 769.69 159.31 770.173 158.984 770.654C158.734 771.033 158.516 771.415 158.255 771.776C158.199 771.854 158.149 771.935 158.08 772.013C157.841 772.292 157.72 772.351 157.53 772.31C157.486 772.301 157.44 772.298 157.402 772.279C157.271 772.227 157.265 772.046 157.359 771.794C157.664 771.018 157.946 770.31 158.236 769.573L158.386 769.177C158.453 769.052 158.507 768.926 158.557 768.805C158.67 768.556 158.752 768.312 158.818 768.073L158.851 768.09L158.862 768.069Z" fill="#52525B"/>
<path d="M70.6631 807.238L71.8334 804.97L73.1517 802.452C73.4943 801.708 74.0051 801.266 74.5314 801.104C74.8258 801.144 75.1586 801.164 75.5066 801.284C75.8677 801.444 76.2041 801.611 76.5269 801.778L77.1616 802.107L77.7365 802.42L78.8836 803.037C79.9981 803.637 81.1406 804.186 82.2441 804.794C84.1965 805.858 86.154 806.937 88.11 807.93L88.5061 808.127C88.555 808.151 88.6038 808.176 88.6526 808.2C88.6744 808.211 88.7069 808.227 88.7316 808.219L88.7842 808.159L88.9651 807.898L89.3305 807.291C89.8776 806.357 90.4194 805.408 90.9559 804.455C91.9004 802.765 92.8179 801.048 93.6972 799.338C94.2573 798.238 94.8148 797.131 95.4238 796.055C95.7256 795.516 96.0302 794.972 96.3428 794.438C96.4264 794.308 96.4883 794.166 96.5936 794.046L96.9094 793.687C97.12 793.447 97.2981 793.191 97.4924 792.943C97.9863 792.327 97.917 792.405 97.7829 793.067C97.7267 793.404 97.6361 793.869 97.6499 794.499C97.5823 795.088 97.356 795.704 97.0854 796.365C96.119 798.7 94.9356 800.928 93.7845 803.185C93.2049 804.308 92.59 805.42 91.9642 806.527L91.001 808.188L90.365 809.237C90.2844 809.349 90.228 809.494 90.1314 809.571L89.8605 809.834C89.7693 809.915 89.6887 810.027 89.5925 810.079L89.4493 810.167L89.4163 810.19L89.4107 810.2C89.4107 810.2 89.4158 810.229 89.392 810.171L89.3701 810.173L89.2772 810.18C89.007 810.172 88.7224 810.216 88.4075 810.072C88.103 809.974 87.7856 809.81 87.4896 809.682C87.1315 809.504 86.7733 809.326 86.4152 809.148C85.7043 808.794 84.9881 808.438 84.2718 808.082C82.8392 807.369 81.3956 806.665 79.9851 805.937L75.5286 803.621L75.2898 803.502L75.176 803.432C75.1543 803.422 75.1326 803.411 75.1135 803.408C75.0997 803.421 75.0831 803.439 75.0747 803.455C74.9801 803.593 74.899 803.745 74.8096 803.9L73.6232 806.145C72.6518 808.015 71.6805 809.884 70.7037 811.75C69.2312 814.583 67.7233 817.418 66.1967 820.21C66.0317 820.519 65.8558 820.823 65.6881 821.124C65.4558 821.353 65.2866 821.772 64.8916 821.702C64.5451 821.682 64.1675 821.527 63.8012 821.351C63.2585 821.081 62.7159 820.812 62.1733 820.542C61.1914 820.027 60.2096 819.512 59.2277 818.997C58.745 818.744 58.273 818.496 57.782 818.245C56.0006 817.273 55.5004 816.885 55.3641 816.228C55.3332 816.08 55.2698 815.916 55.2769 815.787C55.2798 815.344 56.2126 815.424 57.5914 816.07C59.0164 816.732 60.4131 817.473 61.8179 818.225C62.5121 818.597 63.2118 818.971 63.9141 819.353L64.1746 819.483L64.3048 819.548C64.3536 819.572 64.3211 819.556 64.3374 819.564L64.3592 819.562C64.3592 819.562 64.3731 819.549 64.3732 819.535C64.9108 818.491 65.4596 817.425 66.0056 816.365C67.5543 813.338 69.1032 810.285 70.6279 807.214L70.6767 807.238H70.6631Z" fill="#52525B"/>
<path d="M97.3234 843.105C98.3133 841.279 99.3034 839.439 100.245 837.601C100.359 837.373 100.477 837.14 100.603 836.917L100.841 836.472C100.863 836.43 100.896 836.381 100.9 836.336L100.764 836.242L100.656 836.175L100.317 835.974L99.6368 835.576L98.257 834.79L96.2181 833.67L95.1932 833.107L94.6808 832.819L94.3149 832.604C94.1876 832.521 94.041 832.461 93.9277 832.352L93.6171 832.085C93.5199 831.997 93.4639 831.896 93.3832 831.803C93.3455 831.758 93.3135 831.702 93.2704 831.654L93.3027 831.478C93.3178 831.36 93.3384 831.244 93.3947 831.113L93.6803 830.347L93.7537 830.158L93.8124 830.048L93.9327 829.823L94.8866 828.038L96.8078 824.494C98.0967 822.134 99.4045 819.789 100.732 817.447C101.902 815.372 103.043 813.263 104.176 811.182C104.897 809.845 105.611 808.497 106.387 807.186C107.152 805.87 107.908 804.544 108.888 803.341C109.25 802.998 109.426 802.86 109.456 802.895C109.491 802.932 109.414 803.152 109.365 803.579C109.327 804.01 109.175 804.577 109.002 805.26C108.808 805.932 108.498 806.679 108.098 807.454C106.703 810.219 105.175 812.912 103.685 815.636C102.178 818.352 100.677 821.071 99.0725 823.765C98.1207 825.379 97.2119 827.054 96.322 828.745L95.6559 830.018L95.1601 830.997C95.1428 831.068 95.0406 831.156 95.1439 831.194C95.2088 831.24 95.2685 831.269 95.3797 831.331L96.5674 831.975L99.4041 833.492L100.825 834.265L101.533 834.663L102.056 834.956L102.335 835.115C102.384 835.139 102.433 835.164 102.471 835.196L102.562 835.294L102.937 835.686C102.899 835.873 103.061 836.006 102.977 836.203C102.898 836.568 102.696 836.984 102.555 837.325C102.342 837.815 102.106 838.294 101.863 838.763L100.396 841.572C99.1732 843.86 97.9344 846.139 96.6686 848.405L95.4897 850.483L94.8758 851.516C94.5801 852.005 94.2705 852.52 93.855 852.771C93.6581 852.792 93.4862 852.78 93.2876 852.727C93.0889 852.675 92.8906 852.596 92.6951 852.512C92.247 852.322 92.0163 852.214 91.7422 852.085L90.1138 851.315C89.0364 850.799 87.9644 850.285 86.8952 849.767C85.5031 849.094 84.1189 848.446 82.7233 847.831L81.7403 847.409C81.5745 847.346 81.4196 847.289 81.2645 847.245C81.2318 847.242 81.1831 847.204 81.1553 847.244L81.1046 847.364L81.0062 847.587L80.9022 847.82L80.656 848.281C80.3401 848.859 80.0489 849.43 79.7275 850.006C78.5261 852.138 78.0649 852.757 77.368 853.02C77.2116 853.081 77.0384 853.174 76.9044 853.193C76.4557 853.262 76.5649 852.196 77.2637 850.503C77.5229 849.877 77.793 849.255 78.0659 848.629C78.3497 847.995 78.6391 847.364 78.9257 846.724L79.3404 845.897L79.5698 845.468C79.656 845.345 79.7133 845.135 79.8257 845.105L80.1341 844.9L80.291 844.799L80.3323 844.773C80.3323 844.773 80.4273 845.033 80.3852 844.906L80.399 844.893L80.4211 844.877L80.5008 844.831C80.6055 844.764 80.7237 844.696 80.8576 844.69C80.9941 844.692 81.1413 844.712 81.2883 844.745C81.5904 844.823 81.8999 844.963 82.2067 845.096L82.9967 845.456L83.9766 845.91C85.2712 846.521 86.5656 847.145 87.8461 847.795C89.1099 848.463 90.382 849.129 91.6567 849.802L92.9289 850.455C93.2328 850.606 93.1189 850.549 93.1406 850.56C93.149 850.545 93.1238 850.592 93.1601 850.524L93.7658 849.493L94.956 847.381C95.7414 845.963 96.5187 844.534 97.2798 843.097L97.3232 843.119L97.3234 843.105Z" fill="#52525B"/>
<path d="M122.105 830.218L122.686 829.169L122.966 828.645C122.999 828.595 123.018 828.598 123.024 828.561C123.044 828.538 123.088 828.507 123.083 828.478C123.067 828.457 123.042 828.438 123.015 828.411C122.98 828.387 122.983 828.382 122.907 828.331L122.365 828.022C121.636 827.612 120.885 827.219 120.136 826.82C119.32 826.394 118.481 826.023 117.662 825.59L116.848 825.158L116.181 824.826C116.061 824.767 115.942 824.708 115.839 824.643C115.741 824.568 115.658 824.494 115.574 824.419C115.534 824.379 115.504 824.331 115.472 824.289L115.432 824.222L115.411 824.185L115.4 824.167C115.4 824.167 115.455 824.141 115.447 824.143V824.13C115.407 824.011 115.381 823.906 115.369 823.787C115.326 823.56 115.414 823.305 115.488 823.051L115.621 822.673C115.661 822.547 115.728 822.408 115.753 822.348L115.956 821.892C116.237 821.289 116.555 820.719 116.868 820.146L118.769 816.744C119.453 815.501 120.144 814.261 120.823 813.028C121.663 811.431 122.592 809.872 123.778 808.461C124.15 808.023 124.179 808.124 124.115 808.629C124.078 808.929 124.033 809.284 123.984 809.67C123.916 810.094 123.798 810.572 123.614 811.057C123.442 811.481 123.3 811.928 123.095 812.336L122.49 813.572L121.26 816.028C120.379 817.638 119.474 819.242 118.561 820.835C118.237 821.39 117.954 821.971 117.668 822.545L117.46 822.971L117.365 823.189C117.339 823.236 117.325 823.289 117.311 823.341C117.305 823.365 117.296 823.394 117.304 823.417C117.32 823.439 117.35 823.447 117.372 823.458C118.069 823.798 118.764 824.13 119.456 824.468C120.476 824.975 121.497 825.482 122.514 826.008L123.276 826.407L124.127 826.87C124.509 827.093 124.935 827.312 125.169 827.607C125.271 827.737 125.411 827.913 125.351 828.089C125.352 828.255 125.276 828.449 125.208 828.64C125.11 828.823 125.031 829.009 124.944 829.198L124.801 829.465L124.712 829.646C123.971 830.993 123.235 832.344 122.495 833.692L121.678 835.22L121.339 835.906C121.269 836.05 121.19 836.197 121.161 836.355C121.225 836.493 121.398 836.566 121.523 836.667L122.165 837.086C122.655 837.403 123.156 837.711 123.66 838.015C125.221 838.95 126.827 839.762 128.424 840.616C128.777 840.805 129.129 840.967 129.474 841.171C130.764 841.906 131.095 842.263 131.087 842.869C131.083 843.006 131.106 843.156 131.074 843.279C130.976 843.694 130.274 843.67 129.273 843.218C127.782 842.55 126.307 841.776 124.832 840.95C124.097 840.538 123.357 840.111 122.626 839.668L121.528 838.996L120.345 838.242C120.082 838.065 119.85 837.87 119.607 837.682C119.477 837.591 119.415 837.475 119.316 837.379L119.181 837.219L119.104 837.042C119.128 836.894 119.058 836.78 119.046 836.648C119.035 836.516 119.014 836.387 119.057 836.243C119.104 835.962 119.231 835.673 119.347 835.393L119.526 835.005L119.644 834.759L119.863 834.324L120.302 833.476L122.084 830.168L122.127 830.189L122.105 830.218Z" fill="#52525B"/>
<path d="M113.712 752.949L115.094 750.568L115.449 749.969L115.66 749.624C115.764 749.457 115.861 749.287 115.975 749.125C116.196 748.777 116.464 748.493 116.774 748.389C117.024 748.049 117.417 748.278 117.774 748.33C118.043 748.417 118.323 748.55 118.6 748.661L118.809 748.745C118.874 748.777 118.89 748.786 118.939 748.81L119.178 748.915C119.496 749.054 119.805 749.194 120.112 749.353C122.263 750.456 124.381 751.596 126.493 752.746C127.426 753.262 128.386 753.74 129.33 754.223C129.944 754.515 130.54 754.851 131.134 755.193C131.426 755.365 131.716 755.555 131.995 755.753C132.136 755.85 132.271 755.957 132.409 756.059C132.544 756.166 132.651 756.312 132.778 756.434C133.074 756.767 132.995 756.774 132.563 756.798C132.112 756.845 131.336 756.883 130.602 756.611C129.969 756.343 129.3 756.13 128.693 755.814L126.831 754.915C125.583 754.32 124.371 753.658 123.168 752.954C121.726 752.117 120.109 751.466 118.568 750.752L117.995 750.487L117.767 750.374C117.729 750.355 117.686 750.333 117.648 750.314C117.604 750.306 117.581 750.361 117.557 750.382C117.501 750.447 117.454 750.51 117.398 750.588L117.362 750.656L117.29 750.753L117.109 751.04L116.749 751.623L116.035 752.805C115.446 753.778 114.874 754.759 114.302 755.74C113.436 757.232 112.538 758.706 111.694 760.195C111.035 761.352 110.471 762.536 109.826 763.692C109.683 763.946 109.552 764.205 109.398 764.454C108.808 765.379 108.45 765.572 107.921 765.495C107.802 765.475 107.67 765.476 107.573 765.441C107.233 765.331 107.207 764.788 107.533 764.076C108.526 761.986 109.733 759.869 110.948 757.723C111.856 756.127 112.772 754.529 113.685 752.936L113.728 752.957L113.712 752.949Z" fill="#52525B"/>
<path d="M136.432 799.585L134.95 802.088L134.574 802.716L134.27 803.221C134.163 803.42 134.028 803.558 133.9 803.719C133.414 804.346 132.593 804.07 131.796 803.66C131.085 803.32 130.457 803.067 129.795 802.738L123.024 799.265C122.018 798.757 120.992 798.287 119.974 797.827C119.328 797.519 118.677 797.208 118.031 796.9C117.716 796.731 117.382 796.598 117.084 796.383C116.798 796.161 116.503 795.942 116.216 795.72C115.868 795.421 115.925 795.442 116.337 795.455C116.547 795.46 116.85 795.459 117.214 795.447C117.391 795.449 117.605 795.423 117.801 795.454C117.991 795.496 118.182 795.551 118.375 795.627L120.428 796.436C121.107 796.721 121.761 797.04 122.426 797.35C123.751 797.983 125.064 798.636 126.366 799.336C127.917 800.174 129.634 800.855 131.262 801.625L132.486 802.201C132.568 802.241 132.649 802.282 132.736 802.325C132.784 802.363 132.818 802.326 132.84 802.284L132.921 802.172C132.962 802.133 133.289 801.56 133.512 801.167L134.236 799.904L136.004 796.774C136.893 795.189 137.811 793.611 138.664 792.028C139.324 790.792 139.892 789.537 140.53 788.291C140.676 788.019 140.797 787.741 140.948 787.472C141.219 786.964 141.501 786.68 141.725 786.506C141.951 786.327 142.183 786.29 142.453 786.312C142.574 786.319 142.699 786.315 142.797 786.337C143.113 786.415 143.166 786.984 142.858 787.752C141.885 789.998 140.616 792.256 139.35 794.536C138.392 796.226 137.431 797.921 136.468 799.609L136.43 799.59L136.432 799.585Z" fill="#52525B"/>
<path d="M122.673 735.6C121.386 738.021 120.007 740.397 118.711 742.821C118.082 743.998 119.978 744.948 120.611 743.765C121.903 741.347 123.282 738.971 124.572 736.545C125.201 735.367 123.3 734.414 122.673 735.6Z" fill="#52525B"/>
<path d="M134.536 741.499C133.249 743.92 131.87 746.296 130.575 748.72C129.945 749.897 131.842 750.847 132.474 749.664C133.766 747.246 135.145 744.87 136.435 742.444C137.065 741.266 135.163 740.313 134.536 741.499Z" fill="#52525B"/>
<path d="M147.626 748.01C146.339 750.431 144.96 752.806 143.664 755.23C143.035 756.408 144.932 757.358 145.564 756.175C146.856 753.756 148.235 751.381 149.525 748.954C150.155 747.777 148.253 746.824 147.626 748.01Z" fill="#52525B"/>
<path d="M158.989 754.482C157.702 756.903 156.323 759.278 155.028 761.702C154.398 762.88 156.295 763.83 156.927 762.647C158.219 760.228 159.599 757.853 160.888 755.426C161.518 754.248 159.616 753.296 158.989 754.482Z" fill="#52525B"/>
<path d="M167.824 774.401C165.314 773.159 162.852 771.828 160.34 770.579C159.119 769.972 158.134 771.801 159.361 772.411C161.868 773.658 164.33 774.989 166.845 776.233C168.066 776.84 169.053 775.005 167.824 774.401Z" fill="#52525B"/>
<path d="M162.053 785.2C159.543 783.958 157.081 782.628 154.568 781.378C153.347 780.771 152.363 782.601 153.589 783.211C156.096 784.457 158.558 785.788 161.073 787.032C162.294 787.639 163.282 785.805 162.053 785.2Z" fill="#52525B"/>
<path d="M155.996 796.533C153.486 795.291 151.024 793.961 148.511 792.711C147.291 792.104 146.306 793.934 147.532 794.544C150.039 795.79 152.502 797.121 155.017 798.365C156.238 798.972 157.225 797.138 155.996 796.533Z" fill="#52525B"/>
<path d="M150.306 807.181C147.797 805.94 145.334 804.609 142.822 803.36C141.601 802.753 140.617 804.582 141.843 805.192C144.35 806.439 146.812 807.769 149.327 809.014C150.548 809.621 151.536 807.786 150.306 807.181Z" fill="#52525B"/>
<path d="M108.66 744.149C106.15 742.907 103.688 741.577 101.176 740.327C99.955 739.72 98.9705 741.549 100.196 742.159C102.703 743.406 105.166 744.737 107.681 745.981C108.902 746.588 109.889 744.753 108.66 744.149Z" fill="#52525B"/>
<path d="M102.89 754.948C100.381 753.707 97.9186 752.376 95.4062 751.127C94.1853 750.52 93.2008 752.349 94.4271 752.959C96.9341 754.206 99.3964 755.536 101.911 756.781C103.132 757.388 104.12 755.553 102.89 754.948Z" fill="#52525B"/>
<path d="M96.8341 766.282C94.3243 765.04 91.8621 763.71 89.3497 762.46C88.1287 761.853 87.1442 763.683 88.3706 764.293C90.8776 765.539 93.3398 766.87 95.855 768.114C97.076 768.721 98.0633 766.887 96.8341 766.282Z" fill="#52525B"/>
<path d="M91.1427 776.93C88.6329 775.689 86.1706 774.358 83.6582 773.109C82.4372 772.502 81.4528 774.331 82.6792 774.941C85.1862 776.188 87.6484 777.518 90.1636 778.763C91.3846 779.37 92.3719 777.535 91.1427 776.93Z" fill="#52525B"/>
<path d="M100.509 759.96L108.052 745.973L109.953 742.479L110.434 741.605L110.733 741.071C110.886 740.823 111.018 740.537 111.188 740.31L111.446 739.981L111.741 739.763L112.011 739.566L112.077 739.52L112.11 739.496L112.116 739.486C112.139 739.544 112.103 739.407 112.108 739.423L112.125 739.418C112.179 739.405 112.229 739.403 112.281 739.396C112.507 739.422 112.763 739.47 113.021 739.539C113.293 739.634 113.562 739.735 113.836 739.878L121.335 743.647C124.854 745.43 128.4 747.161 131.905 748.957C136.91 751.532 141.906 754.123 146.894 756.743L154.352 760.703L158.064 762.729L159.91 763.773L160.837 764.326C161.265 764.592 161.752 764.901 162.045 765.278C162.201 765.681 162.105 766.13 161.889 766.599L161.74 766.942L161.63 767.186L161.42 767.631L160.565 769.386L158.814 772.855C156.061 778.238 153.259 783.623 150.45 788.919C148.645 792.322 146.832 795.727 144.962 799.111C144.037 800.804 143.079 802.481 142.094 804.145L140.607 806.632C140.099 807.453 139.527 808.242 138.976 809.041C138.272 810.023 137.937 810.433 137.905 810.377C137.867 810.319 138.12 809.782 138.498 808.83C139.2 806.9 140.626 803.434 142.707 799.526C145.756 793.847 148.734 788.132 151.696 782.396C153.175 779.526 154.653 776.657 156.14 773.785C156.868 772.345 157.596 770.905 158.327 769.459L159.39 767.291L159.884 766.238C159.901 766.193 159.962 766.131 159.941 766.08C159.9 766.04 159.881 766.024 159.765 765.947L158.868 765.414L157.014 764.36C155.756 763.668 154.498 762.976 153.234 762.281C144.752 757.678 135.692 753.259 126.856 748.804L112.965 741.843C112.965 741.843 112.902 741.805 112.878 741.813L112.833 741.897L112.724 742.061L112.448 742.553L111.475 744.296L109.538 747.792L105.7 754.809C102.576 760.577 99.4578 766.362 96.4074 772.16C94.1013 776.552 91.7758 780.969 89.5949 785.397L89.2048 786.23L89.0556 786.573L88.9597 786.817C88.9478 786.891 88.8646 786.995 88.943 787.054C89.0078 787.113 89.092 787.148 89.1678 787.199L89.7857 787.559C90.8698 788.191 91.9844 788.792 93.0989 789.393C95.3253 790.586 97.5519 791.766 99.7869 792.931C106.719 796.551 113.595 799.97 120.522 803.409C122.049 804.162 123.547 804.893 125.086 805.652C130.791 808.483 132.557 809.434 133.593 810.413C133.827 810.642 134.16 810.894 134.292 811.059C134.52 811.338 133.958 811.323 132.835 810.957C131.712 810.591 130.022 809.896 127.903 808.902C121.617 805.961 115.257 802.785 108.83 799.516C102.401 796.239 95.9379 792.859 89.4594 789.378L88.5427 788.896L88.1441 788.678C87.9977 788.592 87.8486 788.511 87.7133 788.417L87.3677 788.113C87.257 788.011 87.1135 787.92 87.0796 787.79C87.0585 787.522 86.9717 787.26 86.959 786.975C87.0147 786.678 87.1169 786.371 87.241 786.062C87.3796 785.687 87.4077 785.621 87.4837 785.44L87.6891 784.966C88.2429 783.724 88.8126 782.516 89.396 781.309C90.5545 778.897 91.8053 776.53 93.0235 774.148C95.4843 769.401 97.9858 764.669 100.487 759.949L100.541 759.963L100.509 759.96Z" fill="#52525B"/>
<path d="M73.6492 859.89C73.0339 859.538 72.5486 859.058 72.1756 858.547C71.9768 858.29 71.8381 858.035 71.6834 857.746C71.5182 857.425 71.4214 857.092 71.3656 856.76C71.2872 856.277 71.2496 855.794 71.3593 855.332C71.5444 854.523 71.985 853.801 72.5654 853.255C73.1511 852.724 73.8141 852.332 74.557 852.098C75.2095 851.893 75.9205 851.809 76.6127 851.915C77.0571 851.97 77.5029 852.126 77.8598 852.396C78.0438 852.527 78.2058 852.674 78.3373 852.852C78.4468 853.046 78.5454 853.234 78.6111 853.432C78.6898 853.683 78.6053 853.674 78.3466 853.619C78.2187 853.588 78.0443 853.554 77.8368 853.557C77.7358 853.553 77.6292 853.56 77.5283 853.556C77.4355 853.55 77.3594 853.525 77.275 853.503C76.703 853.391 76.2181 853.309 75.6622 853.437C75.1204 853.525 74.5472 853.724 74.0103 854.073C73.3637 854.46 73.0753 855.231 73.0503 855.908C73.0318 856.29 73.1035 856.657 73.2769 856.975C73.4904 857.359 73.7619 857.7 74.0833 857.972C74.4749 858.306 74.9525 858.544 75.4652 858.587C76.2369 858.672 77.0923 858.395 77.6842 857.802C78.1348 857.37 78.2462 856.776 78.2261 856.209C78.225 856.083 78.1884 855.959 78.179 855.835C78.1468 855.368 78.28 855.196 78.8068 854.994C78.9276 854.948 79.0457 854.894 79.1636 854.853C79.5639 854.721 79.9819 854.916 80.1691 855.439C80.4161 856.198 80.3794 857.141 79.9504 858.021C79.7401 858.453 79.429 858.868 79.0644 859.191C78.7193 859.489 78.3471 859.775 77.9048 859.985C77.2672 860.304 76.5276 860.493 75.7714 860.482C75.0178 860.478 74.2696 860.271 73.635 859.929L73.6574 859.887L73.6492 859.89Z" fill="#52525B"/>
<path d="M137.187 846.412C136.851 847.041 136.361 847.585 135.788 847.976C135.21 848.364 134.566 848.594 133.948 848.71L133.235 848.807C133.003 848.844 132.747 848.809 132.509 848.791C131.656 848.665 130.87 848.26 130.301 847.705C129.732 847.151 129.361 846.456 129.204 845.735C129.075 845.088 129.076 844.419 129.272 843.795C129.498 842.973 130.225 842.307 131.035 842.167C131.287 842.12 131.256 842.151 131.161 842.368C131.108 842.468 131.072 842.649 131 842.798C130.921 842.945 130.902 843.161 130.813 843.302C130.721 843.422 130.741 843.604 130.663 843.711C130.585 843.818 130.589 843.966 130.541 844.081C130.483 844.331 130.488 844.591 130.512 844.855C130.595 845.367 130.772 845.899 131.107 846.364C131.52 846.927 132.268 847.134 132.941 847.084C133.132 847.046 133.326 847.03 133.521 846.988C133.721 846.935 133.91 846.863 134.086 846.778C134.438 846.609 134.738 846.367 134.966 846.07C135.249 845.707 135.422 845.243 135.436 844.753C135.464 844.032 135.234 843.228 134.648 842.784C134.185 842.454 133.631 842.411 133.095 842.515C132.977 842.53 132.862 842.578 132.739 842.603C132.284 842.695 132.086 842.63 131.777 842.204C131.705 842.109 131.629 842.018 131.565 841.92C131.359 841.599 131.46 841.192 131.933 840.897C132.624 840.479 133.596 840.24 134.642 840.455C135.69 840.665 136.598 841.422 137.109 842.278C137.92 843.563 137.878 845.146 137.249 846.437L137.201 846.413L137.187 846.412Z" fill="#52525B"/>
<path d="M48.4362 815.444C48.3177 815.1 48.298 814.726 48.2588 814.375C48.2906 814.02 48.2979 813.659 48.3841 813.331C48.4973 813.016 48.5782 812.672 48.7373 812.4C48.9046 812.125 49.0474 811.845 49.2445 811.592L49.6938 811.047C49.8653 810.88 50.0584 810.725 50.2513 810.582C50.9809 810.117 51.8463 809.911 52.654 809.955C53.4644 809.993 54.223 810.245 54.8509 810.676C55.3975 811.067 55.8718 811.555 56.1784 812.138C56.6003 812.878 56.5551 813.85 56.0528 814.481C55.8974 814.682 55.8952 814.635 55.8052 814.418C55.6988 814.192 55.5014 813.829 55.3497 813.522C55.3297 813.379 55.1783 813.264 55.1553 813.14C55.1351 813.011 55.0299 812.912 54.9794 812.801C54.8456 812.589 54.6595 812.41 54.465 812.247C54.0511 811.942 53.5657 811.68 53.0076 811.555C52.3241 811.407 51.6535 811.75 51.2134 812.213C51.0808 812.333 50.9885 812.506 50.8612 812.641C50.7743 812.817 50.6902 812.987 50.5925 813.157L50.4356 813.682C50.4443 813.859 50.4065 814.032 50.4289 814.209C50.467 814.639 50.6857 815.052 50.9951 815.411C51.4883 815.915 52.2174 816.337 52.9553 816.28C53.5267 816.226 53.9542 815.889 54.2703 815.516C54.3343 815.422 54.3794 815.312 54.4569 815.231C54.7069 814.892 54.899 814.815 55.4626 814.943C55.5906 814.973 55.7215 814.986 55.8412 815.019C56.2521 815.124 56.4578 815.484 56.3361 816.033C56.3034 816.236 56.2082 816.427 56.1019 816.626C55.9983 816.82 55.8893 817.024 55.745 817.204C55.421 817.553 55.0696 817.915 54.5889 818.146C53.6623 818.646 52.4986 818.69 51.5219 818.41C50.0386 818.037 48.8821 816.872 48.3895 815.467L48.4416 815.447L48.4362 815.444Z" fill="#52525B"/>
<path d="M77.8318 469.399C75.7586 470.656 73.7484 472.001 71.7469 473.351C71.0229 473.859 70.2532 474.287 69.5464 474.804C67.0398 476.624 64.6134 478.543 62.2213 480.479C61.1861 481.384 60.1136 482.214 59.0611 483.11C58.3876 483.689 57.7089 484.298 57.1361 485.02C56.5164 485.705 56.2118 486.668 56.0229 487.539C55.951 488.108 56.0444 488.037 56.3592 487.675C56.5294 487.501 56.78 487.259 57.0998 487.032C57.2597 486.919 57.4374 486.793 57.6191 486.68C57.708 486.617 57.7968 486.554 57.9114 486.505L58.1442 486.275C59.2638 485.15 60.7254 484.274 62.199 483.272C63.6887 482.323 65.0226 481.168 66.3863 480.041C68.0137 478.668 69.9178 477.542 71.7147 476.348C73.698 475.033 75.7104 473.766 77.7606 472.553C79.0182 471.81 80.2969 471.091 81.5922 470.402C83.5673 469.391 85.535 468.332 87.5787 467.524C89.1606 466.878 90.8019 466.451 92.4267 465.993C92.7866 465.898 93.1379 465.799 93.4978 465.704C94.8165 465.281 95.1696 464.951 95.2301 464.155C95.2479 463.977 95.2835 463.786 95.2618 463.62C95.2162 463.043 94.5304 462.776 93.4805 462.923C90.3693 463.393 87.2745 464.557 84.2793 465.906C82.0435 466.888 79.8969 468.116 77.7814 469.328L77.8146 469.39L77.8318 469.399Z" fill="#52525B"/>
<path d="M129.704 475.143C130.544 475.399 131.404 475.631 132.285 475.808C132.616 475.871 132.909 475.867 133.219 475.901C134.292 476.037 135.386 475.899 136.479 475.489C136.966 475.33 137.447 475.106 137.903 474.862C138.484 474.54 139.143 474.311 139.792 474.056C139.995 473.987 139.99 474.027 139.885 474.196C139.779 474.364 139.614 474.718 139.345 475.043C138.884 475.629 138.32 476.072 137.7 476.473C137.1 476.902 136.342 477.115 135.587 477.266C134.68 477.433 133.719 477.632 132.79 477.583C131.785 477.515 130.834 477.384 129.876 477.136C129.296 476.989 128.718 476.812 128.143 476.625C127.272 476.337 126.44 475.949 125.618 475.534C124.981 475.209 124.304 474.933 123.69 474.492C123.549 474.397 123.417 474.305 123.283 474.192C122.819 473.766 122.824 473.477 123.17 473.087C123.248 472.991 123.326 472.895 123.418 472.816C123.728 472.548 124.136 472.515 124.431 472.699C125.351 473.214 126.229 473.755 127.274 474.213C128.041 474.555 128.852 474.862 129.703 475.091L129.685 475.136L129.704 475.143Z" fill="#52525B"/>
<path d="M135.322 454.885L139.621 456.076C140.148 456.223 140.682 456.3 141.206 456.457C143.057 456.96 144.882 457.588 146.707 458.185C147.52 458.461 148.319 458.743 149.122 459.016C150.149 459.384 151.17 459.77 152.153 460.226C152.465 460.365 152.389 460.43 152.074 460.436C151.768 460.445 151.224 460.426 150.622 460.282C149.54 460.112 148.446 459.948 147.356 459.774C146.264 459.632 145.219 459.309 144.152 459.02C142.881 458.664 141.521 458.43 140.201 458.149L135.838 457.154L133.154 456.512C131.794 456.196 130.431 455.836 129.074 455.541C128.013 455.316 126.948 455.184 125.869 454.953C125.628 454.903 125.39 454.844 125.146 454.773C124.704 454.647 124.427 454.469 124.257 454.259C124.101 454.065 124.07 453.845 124.116 453.56C124.133 453.431 124.154 453.293 124.186 453.18C124.335 452.788 124.816 452.617 125.355 452.706C127.115 452.956 129.032 453.369 130.968 453.81C132.413 454.149 133.87 454.482 135.315 454.82L135.298 454.866L135.322 454.885Z" fill="#52525B"/>
<path d="M96.0501 450.539C95.8625 450.759 95.7423 450.912 95.7779 451.175C95.8015 451.278 95.8845 451.361 95.9446 451.478C96.2021 451.898 96.6667 452.46 97.15 452.861C97.3741 453.04 97.621 453.185 97.8451 453.364C98.1477 453.583 98.4663 453.787 98.7987 453.954C98.9011 454.014 98.8817 454.038 98.7573 454.063C98.6455 454.084 98.4367 454.14 98.203 454.124C97.7834 454.132 97.3226 454.166 96.9205 454.045C96.5288 453.897 96.1668 453.697 95.8416 453.428C95.4594 453.117 94.9813 452.894 94.5689 452.415C94.1053 451.907 93.8858 451.001 94.0669 450.33C94.164 449.908 94.3362 449.536 94.5583 449.224C94.8894 448.735 95.3534 448.39 95.7033 448.043C95.9915 447.777 96.1841 447.433 96.3925 447.158C96.444 447.105 96.4807 447.035 96.5378 446.994C96.7481 446.824 96.8882 446.867 97.2785 447.129L97.5459 447.303C97.8337 447.506 97.9696 447.807 97.89 448.1C97.8324 448.307 97.7622 448.52 97.6806 448.708C97.5752 448.877 97.4675 449.023 97.3542 449.157C97.1277 449.426 96.891 449.638 96.7136 449.832C96.4289 450.088 96.2834 450.335 96.0991 450.547L96.0536 450.53L96.0501 450.539Z" fill="#52525B"/>
<path d="M100.664 444.599C101.217 444.266 101.772 443.956 102.333 443.657C102.532 443.545 102.719 443.408 102.927 443.299C103.672 442.956 104.387 442.581 105.167 442.335C105.505 442.213 105.837 442.078 106.169 441.943C106.59 441.769 107.021 441.62 107.466 441.517C107.603 441.486 107.61 441.551 107.534 441.668C107.458 441.785 107.305 441.998 107.102 442.15C106.331 442.671 105.653 443.279 104.804 443.624C104.29 443.825 103.845 444.178 103.38 444.47C102.861 444.795 102.351 445.123 101.853 445.476C101.542 445.691 101.241 445.91 100.945 446.142C100.499 446.494 100.044 446.843 99.6482 447.255C99.3484 447.579 99.1203 447.962 98.8866 448.332C98.8339 448.416 98.7903 448.504 98.741 448.579C98.544 448.879 98.3241 448.827 97.9543 448.593C97.87 448.541 97.7767 448.484 97.7016 448.435C97.4411 448.243 97.3269 447.939 97.4099 447.637C97.7624 446.844 98.3971 446.24 99.0727 445.694C99.5699 445.288 100.115 444.922 100.653 444.573L100.673 444.602L100.664 444.599Z" fill="#52525B"/>
<path d="M132.415 477.336C133.012 477.437 133.536 477.375 134.184 477.12C134.826 476.884 135.506 476.464 136.228 475.988C137.729 474.994 139.278 473.955 140.848 473.029C143.988 471.144 147.221 469.483 150.485 467.906C152.868 466.756 155.224 465.596 157.619 464.524L163.924 461.682L164.209 461.561C164.288 461.518 164.415 461.513 164.385 461.398C164.396 461.204 164.352 461.073 164.227 460.828C163.773 459.989 163.068 459.128 162.311 458.321C159.231 455.093 155.533 452.287 151.841 449.576C148.539 447.181 145.09 444.927 141.656 442.773C139.452 441.387 137.239 439.997 135.029 438.597C132.809 437.226 130.629 435.775 128.501 434.241C127.253 433.164 127.45 433.249 128.848 433.601C129.556 433.765 130.499 434.081 131.636 434.49C132.201 434.704 132.818 434.917 133.451 435.198C134.072 435.485 134.727 435.817 135.382 436.179C137.718 437.491 140.052 438.812 142.339 440.198C144.609 441.631 146.857 443.096 149.077 444.603C153.518 447.649 157.905 450.81 161.944 454.557C163.147 455.7 164.343 456.861 165.429 458.283C165.698 458.645 165.968 459.008 166.203 459.43L166.394 459.752C166.465 459.894 166.514 460.069 166.582 460.219L166.766 460.695L166.852 460.936L166.876 461.174C166.9 461.496 166.98 461.808 166.949 462.139L166.929 462.632C166.929 462.632 166.929 462.715 166.924 462.755L166.629 462.956C166.357 463.124 166.164 463.332 165.819 463.472L164.939 463.899C161.95 465.299 158.937 466.71 155.952 468.101C149.392 471.149 142.977 474.283 137.118 478.533C136.146 479.175 135.029 479.815 133.685 480.035C132.323 480.249 130.992 479.912 129.883 479.429C128.756 478.94 127.793 478.347 126.834 477.744C125.871 477.15 124.902 476.575 123.981 475.924C118.275 472.15 113.245 467.496 108.094 463.275C104.099 459.96 99.9392 457.052 95.5251 454.652C94.5702 454.093 93.5533 453.697 92.5686 453.189C88.8308 451.451 87.626 450.974 87.0606 449.854C86.9257 449.605 86.7326 449.344 86.6672 449.132C86.5737 448.774 86.9618 448.629 87.7837 448.659C88.1964 448.669 88.7081 448.749 89.3041 448.88C89.6037 448.942 89.9273 449.023 90.2691 449.11C90.597 449.234 90.9593 449.351 91.3328 449.492C95.7938 451.108 100.086 453.556 104.069 456.407C108.064 459.253 111.757 462.484 115.468 465.587C118.218 467.899 121.008 470.132 123.855 472.241C125.3 473.267 126.741 474.302 128.236 475.223C129.738 476.208 131.195 477.093 132.4 477.268L132.394 477.338L132.415 477.336Z" fill="#52525B"/>
<path d="M101.418 442.936C103.371 442.206 105.319 441.465 107.209 440.597C107.906 440.298 108.557 439.899 109.251 439.579C111.674 438.433 114.101 437.279 116.411 435.883C117.443 435.274 118.455 434.636 119.429 433.963C120.045 433.519 120.661 433.075 121.33 432.683C121.97 432.258 122.63 431.863 123.326 431.511C123.763 431.291 123.795 431.428 123.62 431.862C123.44 432.284 123.124 433.091 122.495 433.759C120.281 436.088 117.626 437.926 114.719 439.305C112.998 440.164 111.31 441.212 109.546 442.075C107.609 443.009 105.629 443.863 103.634 444.65C102.405 445.143 101.173 445.593 99.9328 446.061C98.0472 446.722 96.1616 447.383 94.2885 448.039C92.84 448.563 91.4675 449.189 90.0451 449.755C89.738 449.878 89.4331 450.023 89.1112 450.131C87.9243 450.515 87.4854 450.463 87.0482 449.912C86.9482 449.791 86.8301 449.663 86.7552 449.53C86.499 449.079 86.8633 448.53 87.6878 448.113C90.1293 446.891 92.8012 445.996 95.4631 445.046C97.4458 444.349 99.4284 443.651 101.383 442.891L101.405 442.941L101.418 442.936Z" fill="#52525B"/>
<path d="M142.523 457.486C139.534 456.907 136.531 456.364 133.509 455.928C132.406 455.761 131.29 455.682 130.187 455.514L126.988 455.022L125.362 454.75C124.444 454.642 123.666 454.358 123.166 453.836C123.097 453.497 122.963 453.217 122.959 452.841C122.942 452.501 122.9 452.089 122.902 451.809L122.908 450.446C122.925 449.547 122.925 448.64 122.986 447.736C123.078 445.979 123.108 444.22 123.154 442.477C123.171 441.359 123.222 440.232 123.301 439.116C123.345 438.56 123.402 437.998 123.48 437.434C123.503 437.151 123.589 436.871 123.689 436.607L123.968 435.786C124.227 435.102 124.269 435.212 124.528 435.82C124.66 436.131 124.862 436.561 125.134 437.081C125.344 437.598 125.435 438.185 125.465 438.821C125.568 441.079 125.58 443.333 125.584 445.605C125.572 446.736 125.601 447.872 125.549 448.998L125.46 450.694C125.432 451.235 125.415 451.968 125.364 451.938C125.343 451.993 125.337 452.064 125.331 452.134C125.324 452.236 125.447 452.241 125.52 452.268L125.647 452.317L125.749 452.324L125.985 452.361C126.604 452.46 127.247 452.547 127.886 452.622C129.168 452.785 130.46 452.92 131.745 453.104C134.807 453.545 137.868 454.016 140.934 454.531C142.811 454.856 144.699 455.206 146.571 455.571C149.413 456.126 152.241 456.801 155.049 457.499C157.221 458.061 159.401 458.522 161.548 459.428C162.021 459.608 162.49 459.827 162.951 460.095C163.804 460.595 164.337 461.057 164.59 461.518C164.831 461.953 164.811 462.393 164.692 462.733C164.63 462.897 164.595 463.072 164.511 463.185C164.373 463.383 164.102 463.385 163.757 463.306C163.436 463.216 162.95 463.126 162.487 462.836C160.954 462.068 159.133 461.514 157.27 460.934C155.396 460.381 153.443 459.87 151.451 459.408C148.504 458.719 145.501 458.093 142.486 457.556L142.492 457.485L142.523 457.486Z" fill="#52525B"/>
<path d="M100.171 447.057C101.927 447.097 103.685 447.158 105.439 447.229C106.08 447.242 106.722 447.225 107.358 447.278C109.619 447.468 111.869 447.715 114.107 447.968C115.095 448.082 116.098 448.129 117.091 448.202C117.724 448.265 118.366 448.3 118.992 448.38C119.308 448.427 119.625 448.526 119.936 448.613C120.092 448.64 120.245 448.73 120.389 448.847C120.542 448.936 120.698 448.964 120.853 449.022C121.236 449.167 121.175 449.217 120.824 449.376C120.641 449.473 120.405 449.519 120.09 449.827C119.783 450.034 119.443 450.134 119.07 450.212C116.487 450.349 113.955 450.13 111.377 449.841C109.837 449.644 108.222 449.782 106.641 449.777C104.906 449.766 103.162 449.721 101.411 449.724C100.338 449.725 99.2618 449.734 98.1876 449.765C96.5638 449.817 94.9196 449.84 93.3069 450C92.0535 450.119 90.8338 450.397 89.6109 450.601C89.3439 450.646 89.0758 450.721 88.8032 450.753C88.2922 450.81 87.9592 450.809 87.7054 450.682C87.4528 450.523 87.2949 450.307 87.1603 449.975C87.1015 449.828 87.021 449.683 86.9747 449.53C86.9014 449.283 86.9694 449.049 87.1297 448.818C87.2992 448.59 87.5748 448.33 87.9422 448.24C90.1278 447.557 92.4719 447.226 94.8403 447.133C96.5953 447.037 98.3809 447.025 100.148 447.007L100.155 447.072L100.171 447.057Z" fill="#52525B"/>
<path d="M131.673 471.045C131.682 470.059 131.672 469.066 131.641 468.075C131.631 467.717 131.546 467.362 131.54 466.995C131.548 465.706 131.582 464.407 131.525 463.125C131.502 462.554 131.479 461.982 131.421 461.419C131.393 461.054 131.343 460.691 131.345 460.327C131.347 459.964 131.375 459.589 131.42 459.221C131.454 458.994 131.577 458.999 131.783 459.17C131.98 459.339 132.322 459.645 132.503 460.047C132.789 460.749 132.985 461.469 133.182 462.189C133.365 462.915 133.397 463.656 133.425 464.407C133.426 465.313 133.732 466.21 133.8 467.132C133.898 468.138 133.953 469.148 134.005 470.168L134.087 472.042C134.135 472.988 134.128 473.943 134.223 474.875C134.28 475.605 134.501 476.313 134.62 477.046C134.653 477.204 134.696 477.366 134.708 477.527C134.774 478.125 134.482 478.317 133.855 478.433C133.709 478.461 133.559 478.499 133.411 478.505C132.925 478.55 132.497 478.305 132.271 477.886C131.797 476.633 131.756 475.337 131.692 474.021C131.667 473.043 131.635 472.052 131.613 471.064L131.669 471.054L131.673 471.045Z" fill="#52525B"/>
<path d="M106.778 404.872C106.606 404.693 106.779 404.456 107.148 404.169C107.266 404.078 107.671 403.971 107.74 404.007C107.885 404.093 108.038 404.183 108.154 404.289C108.226 404.348 108.815 405.487 109.025 405.869C109.238 406.241 109.371 406.635 109.487 407.043C109.719 407.861 109.964 408.672 110.149 409.503C110.194 409.686 110.209 409.869 110.198 410.063C110.168 410.718 110.26 411.357 110.373 411.993C110.397 412.096 110.395 412.21 110.496 412.301C110.678 412.453 110.836 414.21 110.78 414.439C110.637 415.01 110.556 415.583 110.429 416.139C110.41 416.216 110.45 416.304 110.339 416.376C110.085 416.551 110.128 416.713 110.111 416.894C110.092 417.137 110.046 417.369 109.956 417.606C109.912 417.725 109.765 417.836 109.641 417.945C109.529 418.049 109.137 417.983 109.098 417.948C108.973 417.838 108.794 417.927 108.627 417.926C108.575 417.927 108.501 417.93 108.461 417.926C108.363 417.909 107.716 416.591 107.715 416.456C107.722 416.438 107.652 415.963 107.595 415.452C107.526 414.947 107.442 414.425 107.409 414.319C107.377 414.213 107.434 414.089 107.466 413.976C107.487 413.922 107.155 412.431 107.158 412.37C107.161 412.059 107.025 411.757 107.214 411.423C107.251 411.353 107.232 411.294 107.225 411.229C107.145 410.698 107.176 410.148 107.164 409.602C107.157 409.318 107.091 409.053 107.058 408.78C107.057 408.728 107.078 408.673 107.077 408.621C107.083 408.55 107.098 408.483 107.088 408.427C106.969 407.778 106.962 407.109 106.741 406.483C106.7 406.343 106.753 405.571 106.679 405.408C106.643 405.311 106.862 404.925 106.784 404.854L106.778 404.872Z" fill="#52525B"/>
<path d="M91.1059 415.668C90.8685 415.745 90.8331 415.398 90.9069 414.791C90.9268 414.6 91.1395 414.066 91.2217 414.014C91.3862 413.91 91.5507 413.805 91.698 413.747C91.7859 413.707 92.9666 413.862 93.3838 413.916C93.7861 413.954 94.1415 414.088 94.499 414.244C95.2106 414.566 95.9291 414.869 96.6234 415.236C96.7805 415.316 96.9182 415.421 97.0329 415.558C97.4522 416.019 97.9483 416.331 98.4799 416.606C98.5676 416.649 98.6449 416.72 98.7818 416.689C99.0158 416.621 100.366 417.538 100.482 417.728C100.784 418.197 101.08 418.652 101.354 419.11C101.392 419.177 101.477 419.199 101.444 419.342C101.363 419.666 101.514 419.733 101.611 419.864C101.755 420.033 101.884 420.217 101.967 420.436C102.009 420.546 101.976 420.742 101.958 420.901C101.942 421.052 101.608 421.331 101.552 421.341C101.393 421.375 101.305 421.581 101.182 421.712C101.143 421.76 101.088 421.822 101.056 421.852C100.971 421.913 99.5882 421.713 99.4927 421.635C99.4927 421.635 99.3902 421.575 99.2492 421.48C99.1046 421.394 98.9145 421.291 98.7188 421.175C98.3078 420.967 97.9301 420.699 97.8321 420.683C97.741 420.649 97.7026 420.53 97.6482 420.426C97.629 420.367 96.4201 419.763 96.3779 419.737C96.179 419.547 95.8919 419.48 95.8018 419.112C95.7861 419.044 95.7314 419.023 95.6802 418.994C95.267 418.764 94.9169 418.423 94.5313 418.121C94.3403 417.965 94.1034 417.876 93.902 417.747C93.8656 417.734 93.8464 417.674 93.8111 417.63C93.7759 417.585 93.7351 417.528 93.693 417.502C93.1761 417.243 92.7201 416.852 92.1437 416.696C92.0162 416.648 91.5434 416.136 91.3873 416.108C91.3019 416.086 91.1917 415.607 91.0946 415.643L91.1059 415.668Z" fill="#52525B"/>
</svg>
